<?xml version="1.0" standalone="yes"?>
<svg xmlns="http://www.w3.org/2000/svg" width="1026" height="844">
<path style="fill:#ffffff; stroke:none;" d="M0 0L0 844L1026 844L1026 0L0 0z"/>
<path style="fill:#a6a6a6; stroke:none;" d="M743.667 281.333L744.333 281.667L743.667 281.333M741 282L740 284L741 282z"/>
<path style="fill:#343434; stroke:none;" d="M742 282L743 283L742 282z"/>
<path style="fill:#020202; stroke:none;" d="M658 344C660.472 337.107 669.53 334.062 676 331.695C693.519 325.287 712.442 318.499 731 316C727.258 363.417 725 410.36 725 458C725 469.115 724.658 481.009 726.301 492C726.774 495.167 728.975 502.559 733.686 499.914C736.988 498.059 736.014 492.114 735.999 489C735.944 477.364 735 465.7 735 454C735 420.741 734.524 387.073 737.831 354C739 342.31 738.085 328.312 741.434 317.055C743.07 311.555 750.327 311.699 755 310.803C768.939 308.131 782.926 306.331 797 304.715C800.231 304.344 816.124 308.634 813.593 302.065C811.18 295.805 800.999 297.356 796 297.83C778.489 299.49 761.44 302.784 744 305C744.976 301.55 755.516 282.453 743.999 282.752C734.128 283.008 737.054 303.579 729.891 307.697C724.802 310.622 717.62 311.115 712 312.71C698.907 316.426 685.833 320.121 673 324.692C663.573 328.05 654.24 336.483 645 338.686C638.317 340.279 630.706 338.549 624 338.09C611.347 337.223 598.654 336.956 586 336.09C543.829 333.202 501.226 331.888 459 330.039C439.621 329.191 413.769 324.571 395 330.21C386.873 332.651 376.639 342.531 382.179 351.851C383.328 353.783 386.128 355.516 387.977 353.377C390.065 350.962 389.515 346.877 391.653 344.189C397.341 337.038 408.977 339 417 339C459.855 339 503.275 337.164 546 340.09C583.339 342.647 620.66 344.004 658 344z"/>
<path style="fill:#646464; stroke:none;" d="M746 282L747 283L746 282M747 283L748 284L747 283z"/>
<path style="fill:#a6a6a6; stroke:none;" d="M748 284L749 285L748 284z"/>
<path style="fill:#343434; stroke:none;" d="M739 285L740 286L739 285z"/>
<path style="fill:#646464; stroke:none;" d="M748 285L749 286L748 285z"/>
<path style="fill:#a6a6a6; stroke:none;" d="M738 286L739 287L738 286z"/>
<path style="fill:#343434; stroke:none;" d="M738 287L739 288L738 287z"/>
<path style="fill:#a6a6a6; stroke:none;" d="M737 288L738 289L737 288M749 288L749 291L750 291L749 288z"/>
<path style="fill:#343434; stroke:none;" d="M737 289L738 290L737 289z"/>
<path style="fill:#a6a6a6; stroke:none;" d="M736 290L737 291L736 290z"/>
<path style="fill:#646464; stroke:none;" d="M736 291L737 292L736 291z"/>
<path style="fill:#343434; stroke:none;" d="M736 292L737 293L736 292z"/>
<path style="fill:#a6a6a6; stroke:none;" d="M735 294L736 295L735 294M749 294L749 297L750 297L749 294z"/>
<path style="fill:#343434; stroke:none;" d="M735 295L736 296L735 295z"/>
<path style="fill:#a6a6a6; stroke:none;" d="M788 297L788 298L791 298L788 297z"/>
<path style="fill:#646464; stroke:none;" d="M791 297L791 298L794 298L791 297z"/>
<path style="fill:#343434; stroke:none;" d="M794 297L794 298L799 298L794 297M805.667 297.333L806.333 297.667L805.667 297.333z"/>
<path style="fill:#646464; stroke:none;" d="M807 297L808 298L807 297z"/>
<path style="fill:#a6a6a6; stroke:none;" d="M808 297L809 298L808 297M734 298L735 299L734 298z"/>
<path style="fill:#343434; stroke:none;" d="M748 298L749 299L748 298z"/>
<path style="fill:#a6a6a6; stroke:none;" d="M779.667 298.333L780.333 298.667L779.667 298.333z"/>
<path style="fill:#646464; stroke:none;" d="M781.667 298.333L782.333 298.667L781.667 298.333z"/>
<path style="fill:#343434; stroke:none;" d="M783.667 298.333L784.333 298.667L783.667 298.333z"/>
<path style="fill:#646464; stroke:none;" d="M810 298L811 299L810 298z"/>
<path style="fill:#a6a6a6; stroke:none;" d="M811 298L812 299L811 298z"/>
<path style="fill:#646464; stroke:none;" d="M734 299L735 300L734 299z"/>
<path style="fill:#343434; stroke:none;" d="M746 299L747 300L746 299z"/>
<path style="fill:#646464; stroke:none;" d="M747 299L748 300L747 299z"/>
<path style="fill:#a6a6a6; stroke:none;" d="M772.667 299.333L773.333 299.667L772.667 299.333z"/>
<path style="fill:#646464; stroke:none;" d="M774.667 299.333L775.333 299.667L774.667 299.333z"/>
<path style="fill:#343434; stroke:none;" d="M776 299L777 300L776 299z"/>
<path style="fill:#646464; stroke:none;" d="M812 299L813 300L812 299z"/>
<path style="fill:#343434; stroke:none;" d="M734 300L735 301L734 300z"/>
<path style="fill:#a6a6a6; stroke:none;" d="M745 300L746 301L745 300M766.667 300.333L767.333 300.667L766.667 300.333z"/>
<path style="fill:#646464; stroke:none;" d="M768 300L769 301L768 300z"/>
<path style="fill:#343434; stroke:none;" d="M769 300L770 301L769 300z"/>
<path style="fill:#646464; stroke:none;" d="M813 300L814 301L813 300M744 301L745 302L744 301z"/>
<path style="fill:#a6a6a6; stroke:none;" d="M761 301L762 302L761 301z"/>
<path style="fill:#646464; stroke:none;" d="M762.667 301.333L763.333 301.667L762.667 301.333z"/>
<path style="fill:#343434; stroke:none;" d="M764 301L765 302L764 301z"/>
<path style="fill:#a6a6a6; stroke:none;" d="M814 301L815 302L814 301M733.333 302.667L733.667 303.333L733.333 302.667M744.333 302.667L744.667 303.333L744.333 302.667M755.667 302.333L756.333 302.667L755.667 302.333z"/>
<path style="fill:#646464; stroke:none;" d="M757 302L758 303L757 302z"/>
<path style="fill:#343434; stroke:none;" d="M758 302L759 303L758 302M814 302L815 303L814 302z"/>
<path style="fill:#a6a6a6; stroke:none;" d="M750 303L751 304L750 303z"/>
<path style="fill:#646464; stroke:none;" d="M751.667 303.333L752.333 303.667L751.667 303.333z"/>
<path style="fill:#343434; stroke:none;" d="M753 303L754 304L753 303z"/>
<path style="fill:#646464; stroke:none;" d="M733 304L734 305L733 304M744.667 304.333L745.333 304.667L744.667 304.333z"/>
<path style="fill:#343434; stroke:none;" d="M746.667 304.333L747.333 304.667L746.667 304.333M798 304L798 305L805 305L798 304M814 304L815 305L814 304M788 305L789 306L788 305z"/>
<path style="fill:#646464; stroke:none;" d="M789.667 305.333L790.333 305.667L789.667 305.333z"/>
<path style="fill:#a6a6a6; stroke:none;" d="M791 305L791 306L794 306L791 305M807 305L808 306L807 305z"/>
<path style="fill:#646464; stroke:none;" d="M808 305L809 306L808 305z"/>
<path style="fill:#a6a6a6; stroke:none;" d="M814 305L815 306L814 305z"/>
<path style="fill:#646464; stroke:none;" d="M732 306L733 307L732 306z"/>
<path style="fill:#343434; stroke:none;" d="M780.667 306.333L781.333 306.667L780.667 306.333z"/>
<path style="fill:#646464; stroke:none;" d="M782 306L783 307L782 306z"/>
<path style="fill:#a6a6a6; stroke:none;" d="M783 306L783 307L786 307L783 306z"/>
<path style="fill:#343434; stroke:none;" d="M812 306L813 307L812 306z"/>
<path style="fill:#a6a6a6; stroke:none;" d="M730 307L731 308L730 307z"/>
<path style="fill:#343434; stroke:none;" d="M731 307L732 308L731 307M774 307L775 308L774 307z"/>
<path style="fill:#646464; stroke:none;" d="M775 307L776 308L775 307z"/>
<path style="fill:#a6a6a6; stroke:none;" d="M776.667 307.333L777.333 307.667L776.667 307.333M809 307L810 308L809 307M726 308L727 309L726 308z"/>
<path style="fill:#646464; stroke:none;" d="M727 308L728 309L727 308z"/>
<path style="fill:#343434; stroke:none;" d="M728 308L729 309L728 308M768 308L769 309L768 308z"/>
<path style="fill:#646464; stroke:none;" d="M769 308L770 309L769 308z"/>
<path style="fill:#a6a6a6; stroke:none;" d="M770.667 308.333L771.333 308.667L770.667 308.333M722 309L723 310L722 309z"/>
<path style="fill:#646464; stroke:none;" d="M723 309L724 310L723 309z"/>
<path style="fill:#343434; stroke:none;" d="M724 309L725 310L724 309M762 309L763 310L762 309z"/>
<path style="fill:#646464; stroke:none;" d="M763 309L764 310L763 309z"/>
<path style="fill:#a6a6a6; stroke:none;" d="M764.667 309.333L765.333 309.667L764.667 309.333M718 310L719 311L718 310z"/>
<path style="fill:#646464; stroke:none;" d="M719 310L720 311L719 310z"/>
<path style="fill:#343434; stroke:none;" d="M720 310L721 311L720 310M756 310L757 311L756 310z"/>
<path style="fill:#646464; stroke:none;" d="M757 310L758 311L757 310z"/>
<path style="fill:#a6a6a6; stroke:none;" d="M758.667 310.333L759.333 310.667L758.667 310.333M714 311L715 312L714 311z"/>
<path style="fill:#646464; stroke:none;" d="M715 311L716 312L715 311z"/>
<path style="fill:#343434; stroke:none;" d="M716 311L717 312L716 311M751 311L752 312L751 311z"/>
<path style="fill:#646464; stroke:none;" d="M752 311L753 312L752 311z"/>
<path style="fill:#a6a6a6; stroke:none;" d="M753 311L754 312L753 311M711 312L712 313L711 312z"/>
<path style="fill:#646464; stroke:none;" d="M712 312L713 313L712 312z"/>
<path style="fill:#343434; stroke:none;" d="M745 312L746 313L745 312z"/>
<path style="fill:#646464; stroke:none;" d="M746 312L747 313L746 312z"/>
<path style="fill:#a6a6a6; stroke:none;" d="M747.667 312.333L748.333 312.667L747.667 312.333M707 313L708 314L707 313z"/>
<path style="fill:#646464; stroke:none;" d="M708 313L709 314L708 313z"/>
<path style="fill:#343434; stroke:none;" d="M709 313L710 314L709 313z"/>
<path style="fill:#a6a6a6; stroke:none;" d="M742.667 313.333L743.333 313.667L742.667 313.333M703.667 314.333L704.333 314.667L703.667 314.333z"/>
<path style="fill:#343434; stroke:none;" d="M705 314L706 315L705 314z"/>
<path style="fill:#a6a6a6; stroke:none;" d="M700 315L701 316L700 315z"/>
<path style="fill:#646464; stroke:none;" d="M701 315L702 316L701 315z"/>
<path style="fill:#343434; stroke:none;" d="M741.333 315.667L741.667 316.333L741.333 315.667z"/>
<path style="fill:#a6a6a6; stroke:none;" d="M697 316L698 317L697 316z"/>
<path style="fill:#343434; stroke:none;" d="M698 316L699 317L698 316M727 316L728 317L727 316z"/>
<path style="fill:#646464; stroke:none;" d="M728 316L729 317L728 316z"/>
<path style="fill:#a6a6a6; stroke:none;" d="M729 316L730 317L729 316z"/>
<path style="fill:#646464; stroke:none;" d="M730 316L730 319L731 319L730 316z"/>
<path style="fill:#a6a6a6; stroke:none;" d="M693 317L694 318L693 317z"/>
<path style="fill:#646464; stroke:none;" d="M694 317L695 318L694 317z"/>
<path style="fill:#343434; stroke:none;" d="M695 317L696 318L695 317M723 317L724 318L723 317z"/>
<path style="fill:#646464; stroke:none;" d="M724 317L725 318L724 317z"/>
<path style="fill:#a6a6a6; stroke:none;" d="M725 317L726 318L725 317z"/>
<path style="fill:#646464; stroke:none;" d="M741.333 317.667L741.667 318.333L741.333 317.667z"/>
<path style="fill:#a6a6a6; stroke:none;" d="M690 318L691 319L690 318z"/>
<path style="fill:#646464; stroke:none;" d="M691 318L692 319L691 318z"/>
<path style="fill:#343434; stroke:none;" d="M719 318L720 319L719 318z"/>
<path style="fill:#a6a6a6; stroke:none;" d="M720.667 318.333L721.333 318.667L720.667 318.333M687 319L688 320L687 319z"/>
<path style="fill:#343434; stroke:none;" d="M688 319L689 320L688 319M715 319L716 320L715 319z"/>
<path style="fill:#646464; stroke:none;" d="M716 319L717 320L716 319z"/>
<path style="fill:#a6a6a6; stroke:none;" d="M717 319L718 320L717 319z"/>
<path style="fill:#343434; stroke:none;" d="M730.333 319.667L730.667 320.333L730.333 319.667z"/>
<path style="fill:#a6a6a6; stroke:none;" d="M741 319L741 322L742 322L741 319M684 320L685 321L684 320z"/>
<path style="fill:#343434; stroke:none;" d="M685 320L686 321L685 320M711 320L712 321L711 320z"/>
<path style="fill:#646464; stroke:none;" d="M712 320L713 321L712 320z"/>
<path style="fill:#a6a6a6; stroke:none;" d="M713 320L714 321L713 320z"/>
<path style="fill:#646464; stroke:none;" d="M681 321L682 322L681 321z"/>
<path style="fill:#343434; stroke:none;" d="M682 321L683 322L682 321M707 321L708 322L707 321z"/>
<path style="fill:#646464; stroke:none;" d="M708 321L709 322L708 321z"/>
<path style="fill:#a6a6a6; stroke:none;" d="M709 321L710 322L709 321z"/>
<path style="fill:#646464; stroke:none;" d="M678 322L679 323L678 322z"/>
<path style="fill:#343434; stroke:none;" d="M679 322L680 323L679 322z"/>
<path style="fill:#646464; stroke:none;" d="M704 322L705 323L704 322z"/>
<path style="fill:#a6a6a6; stroke:none;" d="M705 322L706 323L705 322M675 323L676 324L675 323z"/>
<path style="fill:#343434; stroke:none;" d="M676 323L677 324L676 323M700 323L701 324L700 323z"/>
<path style="fill:#646464; stroke:none;" d="M701 323L702 324L701 323z"/>
<path style="fill:#a6a6a6; stroke:none;" d="M702 323L703 324L702 323M672 324L673 325L672 324z"/>
<path style="fill:#343434; stroke:none;" d="M673 324L674 325L673 324z"/>
<path style="fill:#646464; stroke:none;" d="M697 324L698 325L697 324z"/>
<path style="fill:#a6a6a6; stroke:none;" d="M698 324L699 325L698 324M729 324L729 327L730 327L729 324M669 325L670 326L669 325z"/>
<path style="fill:#646464; stroke:none;" d="M670 325L671 326L670 325M694 325L695 326L694 325z"/>
<path style="fill:#a6a6a6; stroke:none;" d="M695 325L696 326L695 325z"/>
<path style="fill:#343434; stroke:none;" d="M740.333 325.667L740.667 326.333L740.333 325.667z"/>
<path style="fill:#a6a6a6; stroke:none;" d="M667 326L668 327L667 326z"/>
<path style="fill:#343434; stroke:none;" d="M668 326L669 327L668 326z"/>
<path style="fill:#646464; stroke:none;" d="M691 326L692 327L691 326z"/>
<path style="fill:#a6a6a6; stroke:none;" d="M692 326L693 327L692 326M664 327L665 328L664 327z"/>
<path style="fill:#646464; stroke:none;" d="M665 327L666 328L665 327z"/>
<path style="fill:#343434; stroke:none;" d="M687 327L688 328L687 327z"/>
<path style="fill:#646464; stroke:none;" d="M688 327L689 328L688 327z"/>
<path style="fill:#a6a6a6; stroke:none;" d="M689 327L690 328L689 327z"/>
<path style="fill:#646464; stroke:none;" d="M729 327L729 330L730 330L729 327M740.333 327.667L740.667 328.333L740.333 327.667z"/>
<path style="fill:#a6a6a6; stroke:none;" d="M400.667 328.333L401.333 328.667L400.667 328.333z"/>
<path style="fill:#646464; stroke:none;" d="M402 328L402 329L423 329L402 328z"/>
<path style="fill:#a6a6a6; stroke:none;" d="M423 328L423 329L434 329L423 328M662 328L663 329L662 328z"/>
<path style="fill:#343434; stroke:none;" d="M663 328L664 329L663 328M684 328L685 329L684 328z"/>
<path style="fill:#646464; stroke:none;" d="M685 328L686 329L685 328z"/>
<path style="fill:#a6a6a6; stroke:none;" d="M686 328L687 329L686 328M395 329L396 330L395 329z"/>
<path style="fill:#343434; stroke:none;" d="M396.667 329.333L397.333 329.667L396.667 329.333M442 329L442 330L447 330L442 329z"/>
<path style="fill:#646464; stroke:none;" d="M447 329L447 330L453 330L447 329z"/>
<path style="fill:#a6a6a6; stroke:none;" d="M453 329L453 330L458 330L453 329M660 329L661 330L660 329z"/>
<path style="fill:#343434; stroke:none;" d="M661 329L662 330L661 329z"/>
<path style="fill:#646464; stroke:none;" d="M682 329L683 330L682 329z"/>
<path style="fill:#a6a6a6; stroke:none;" d="M683 329L684 330L683 329M740 329L740 332L741 332L740 329M392 330L393 331L392 330z"/>
<path style="fill:#343434; stroke:none;" d="M393 330L394 331L393 330M463 330L463 331L466 331L463 330z"/>
<path style="fill:#646464; stroke:none;" d="M466 330L466 331L471 331L466 330z"/>
<path style="fill:#a6a6a6; stroke:none;" d="M471 330L471 331L475 331L471 330z"/>
<path style="fill:#646464; stroke:none;" d="M658 330L659 331L658 330M679 330L680 331L679 330z"/>
<path style="fill:#a6a6a6; stroke:none;" d="M680 330L681 331L680 330z"/>
<path style="fill:#343434; stroke:none;" d="M729.333 330.667L729.667 331.333L729.333 330.667z"/>
<path style="fill:#646464; stroke:none;" d="M390 331L391 332L390 331z"/>
<path style="fill:#343434; stroke:none;" d="M391 331L392 332L391 331M480 331L480 332L484 332L480 331z"/>
<path style="fill:#646464; stroke:none;" d="M484 331L484 332L489 332L484 331z"/>
<path style="fill:#a6a6a6; stroke:none;" d="M489 331L489 332L493 332L489 331M656 331L657 332L656 331z"/>
<path style="fill:#343434; stroke:none;" d="M676 331L677 332L676 331z"/>
<path style="fill:#a6a6a6; stroke:none;" d="M677 331L678 332L677 331M388 332L389 333L388 332z"/>
<path style="fill:#343434; stroke:none;" d="M497 332L497 333L501 333L497 332z"/>
<path style="fill:#646464; stroke:none;" d="M501 332L501 333L508 333L501 332z"/>
<path style="fill:#a6a6a6; stroke:none;" d="M508 332L508 333L513 333L508 332z"/>
<path style="fill:#343434; stroke:none;" d="M655 332L656 333L655 332M673 332L674 333L673 332z"/>
<path style="fill:#646464; stroke:none;" d="M674 332L675 333L674 332M387 333L388 334L387 333z"/>
<path style="fill:#343434; stroke:none;" d="M519 333L519 334L524 334L519 333z"/>
<path style="fill:#646464; stroke:none;" d="M524 333L524 334L531 334L524 333z"/>
<path style="fill:#a6a6a6; stroke:none;" d="M531 333L531 334L536 334L531 333z"/>
<path style="fill:#646464; stroke:none;" d="M653 333L654 334L653 333z"/>
<path style="fill:#343434; stroke:none;" d="M671 333L672 334L671 333z"/>
<path style="fill:#a6a6a6; stroke:none;" d="M672 333L673 334L672 333z"/>
<path style="fill:#343434; stroke:none;" d="M386 334L387 335L386 334M542 334L542 335L548 335L542 334z"/>
<path style="fill:#646464; stroke:none;" d="M548 334L548 335L555 335L548 334z"/>
<path style="fill:#a6a6a6; stroke:none;" d="M555 334L555 335L560 335L555 334z"/>
<path style="fill:#343434; stroke:none;" d="M652 334L653 335L652 334M669 334L670 335L669 334z"/>
<path style="fill:#a6a6a6; stroke:none;" d="M670 334L671 335L670 334z"/>
<path style="fill:#343434; stroke:none;" d="M385 335L386 336L385 335M566 335L566 336L572 336L566 335z"/>
<path style="fill:#646464; stroke:none;" d="M572 335L572 336L578 336L572 335z"/>
<path style="fill:#a6a6a6; stroke:none;" d="M578 335L578 336L584 336L578 335M650 335L651 336L650 335z"/>
<path style="fill:#343434; stroke:none;" d="M667 335L668 336L667 335z"/>
<path style="fill:#a6a6a6; stroke:none;" d="M668 335L669 336L668 335M728 335L728 338L729 338L728 335z"/>
<path style="fill:#343434; stroke:none;" d="M739.333 335.667L739.667 336.333L739.333 335.667z"/>
<path style="fill:#646464; stroke:none;" d="M384 336L385 337L384 336z"/>
<path style="fill:#343434; stroke:none;" d="M589 336L589 337L593 337L589 336z"/>
<path style="fill:#646464; stroke:none;" d="M593 336L593 337L599 337L593 336z"/>
<path style="fill:#a6a6a6; stroke:none;" d="M599 336L599 337L603 337L599 336M649 336L650 337L649 336z"/>
<path style="fill:#343434; stroke:none;" d="M665 336L666 337L665 336z"/>
<path style="fill:#a6a6a6; stroke:none;" d="M666 336L667 337L666 336z"/>
<path style="fill:#646464; stroke:none;" d="M383 337L384 338L383 337z"/>
<path style="fill:#343434; stroke:none;" d="M608 337L608 338L612 338L608 337z"/>
<path style="fill:#646464; stroke:none;" d="M612 337L612 338L618 338L612 337z"/>
<path style="fill:#a6a6a6; stroke:none;" d="M618 337L618 338L622 338L618 337M648 337L649 338L648 337z"/>
<path style="fill:#343434; stroke:none;" d="M663 337L664 338L663 337z"/>
<path style="fill:#a6a6a6; stroke:none;" d="M664 337L665 338L664 337z"/>
<path style="fill:#646464; stroke:none;" d="M739 337L739 340L740 340L739 337z"/>
<path style="fill:#a6a6a6; stroke:none;" d="M382 338L383 339L382 338z"/>
<path style="fill:#343434; stroke:none;" d="M627.667 338.333L628.333 338.667L627.667 338.333z"/>
<path style="fill:#646464; stroke:none;" d="M629 338L629 339L633 339L629 338z"/>
<path style="fill:#a6a6a6; stroke:none;" d="M633 338L633 339L636 339L633 338M643.667 338.333L644.333 338.667L643.667 338.333z"/>
<path style="fill:#646464; stroke:none;" d="M645 338L646 339L645 338z"/>
<path style="fill:#343434; stroke:none;" d="M646.667 338.333L647.333 338.667L646.667 338.333z"/>
<path style="fill:#646464; stroke:none;" d="M661 338L662 339L661 338z"/>
<path style="fill:#a6a6a6; stroke:none;" d="M662 338L663 339L662 338z"/>
<path style="fill:#646464; stroke:none;" d="M728.333 338.667L728.667 339.333L728.333 338.667M382 339L383 340L382 339z"/>
<path style="fill:#343434; stroke:none;" d="M399 339L400 340L399 339z"/>
<path style="fill:#646464; stroke:none;" d="M400 339L401 340L400 339z"/>
<path style="fill:#a6a6a6; stroke:none;" d="M401 339L401 340L406 340L401 339M410 339L410 340L416 340L410 339z"/>
<path style="fill:#646464; stroke:none;" d="M416 339L416 340L440 340L416 339z"/>
<path style="fill:#a6a6a6; stroke:none;" d="M440 339L440 340L454 340L440 339M499 339L499 340L507 340L499 339z"/>
<path style="fill:#646464; stroke:none;" d="M507 339L507 340L516 340L507 339z"/>
<path style="fill:#343434; stroke:none;" d="M516 339L516 340L524 340L516 339M659 339L660 340L659 339z"/>
<path style="fill:#a6a6a6; stroke:none;" d="M381 340L382 341L381 340z"/>
<path style="fill:#343434; stroke:none;" d="M395 340L396 341L395 340z"/>
<path style="fill:#646464; stroke:none;" d="M396 340L397 341L396 340z"/>
<path style="fill:#a6a6a6; stroke:none;" d="M397 340L398 341L397 340M533 340L533 341L540 341L533 340z"/>
<path style="fill:#646464; stroke:none;" d="M540 340L540 341L546 341L540 340z"/>
<path style="fill:#343434; stroke:none;" d="M546 340L546 341L550 341L546 340M728 340L728 343L729 343L728 340z"/>
<path style="fill:#a6a6a6; stroke:none;" d="M739 340L739 343L740 343L739 340z"/>
<path style="fill:#646464; stroke:none;" d="M381 341L382 342L381 341z"/>
<path style="fill:#a6a6a6; stroke:none;" d="M394 341L395 342L394 341M556 341L556 342L561 342L556 341z"/>
<path style="fill:#646464; stroke:none;" d="M561 341L561 342L567 342L561 341z"/>
<path style="fill:#343434; stroke:none;" d="M567 341L567 342L572 342L567 341M658 341L659 342L658 341z"/>
<path style="fill:#646464; stroke:none;" d="M392 342L393 343L392 342z"/>
<path style="fill:#a6a6a6; stroke:none;" d="M577 342L577 343L582 343L577 342z"/>
<path style="fill:#646464; stroke:none;" d="M582 342L582 343L588 343L582 342z"/>
<path style="fill:#343434; stroke:none;" d="M588 342L588 343L593 343L588 342z"/>
<path style="fill:#a6a6a6; stroke:none;" d="M658 342L659 343L658 342M380 343L381 344L380 343z"/>
<path style="fill:#646464; stroke:none;" d="M391 343L392 344L391 343z"/>
<path style="fill:#a6a6a6; stroke:none;" d="M598 343L598 344L603 344L598 343z"/>
<path style="fill:#646464; stroke:none;" d="M603 343L603 344L609 344L603 343z"/>
<path style="fill:#343434; stroke:none;" d="M609 343L609 344L614 344L609 343z"/>
<path style="fill:#646464; stroke:none;" d="M380.333 344.667L380.667 345.333L380.333 344.667z"/>
<path style="fill:#a6a6a6; stroke:none;" d="M619 344L619 345L622 345L619 344z"/>
<path style="fill:#646464; stroke:none;" d="M622 344L622 345L625 345L622 344z"/>
<path style="fill:#343434; stroke:none;" d="M625 344L625 345L628 345L625 344M647.667 344.333L648.333 344.667L647.667 344.333z"/>
<path style="fill:#646464; stroke:none;" d="M649 344L650 345L649 344z"/>
<path style="fill:#a6a6a6; stroke:none;" d="M650 344L651 345L650 344z"/>
<path style="fill:#646464; stroke:none;" d="M651 344L651 345L655 345L651 344z"/>
<path style="fill:#a6a6a6; stroke:none;" d="M655.667 344.333L656.333 344.667L655.667 344.333z"/>
<path style="fill:#646464; stroke:none;" d="M390 345L391 346L390 345z"/>
<path style="fill:#a6a6a6; stroke:none;" d="M631 345L631 346L636 346L631 345z"/>
<path style="fill:#646464; stroke:none;" d="M636 345L636 346L641 346L636 345z"/>
<path style="fill:#a6a6a6; stroke:none;" d="M641 345L641 346L645 346L641 345z"/>
<path style="fill:#343434; stroke:none;" d="M380 346L380 349L381 349L380 346M738.333 346.667L738.667 347.333L738.333 346.667z"/>
<path style="fill:#646464; stroke:none;" d="M389.333 347.667L389.667 348.333L389.333 347.667z"/>
<path style="fill:#a6a6a6; stroke:none;" d="M727 347L727 350L728 350L727 347z"/>
<path style="fill:#646464; stroke:none;" d="M738.333 348.667L738.667 349.333L738.333 348.667M380 349L381 350L380 349z"/>
<path style="fill:#a6a6a6; stroke:none;" d="M389 349L389 353L390 353L389 349M380 350L381 351L380 350z"/>
<path style="fill:#646464; stroke:none;" d="M727.333 350.667L727.667 351.333L727.333 350.667z"/>
<path style="fill:#a6a6a6; stroke:none;" d="M738 350L738 353L739 353L738 350z"/>
<path style="fill:#343434; stroke:none;" d="M381 351L382 352L381 351z"/>
<path style="fill:#a6a6a6; stroke:none;" d="M381 352L382 353L381 352z"/>
<path style="fill:#343434; stroke:none;" d="M727.333 352.667L727.667 353.333L727.333 352.667z"/>
<path style="fill:#646464; stroke:none;" d="M382 353L383 354L382 353z"/>
<path style="fill:#343434; stroke:none;" d="M383 354L384 355L383 354z"/>
<path style="fill:#646464; stroke:none;" d="M388 354L389 355L388 354M384 355L385 356L384 355z"/>
<path style="fill:#343434; stroke:none;" d="M385.667 355.333L386.333 355.667L385.667 355.333z"/>
<path style="fill:#646464; stroke:none;" d="M387 355L388 356L387 355z"/>
<path style="fill:#a6a6a6; stroke:none;" d="M726 356L726 361L727 361L726 356z"/>
<path style="fill:#343434; stroke:none;" d="M737.333 356.667L737.667 357.333L737.333 356.667z"/>
<path style="fill:#646464; stroke:none;" d="M737.333 358.667L737.667 359.333L737.333 358.667z"/>
<path style="fill:#a6a6a6; stroke:none;" d="M737 360L737 363L738 363L737 360z"/>
<path style="fill:#646464; stroke:none;" d="M726 361L726 367L727 367L726 361z"/>
<path style="fill:#343434; stroke:none;" d="M736 366L736 377L737 377L736 366M726 367L726 373L727 373L726 367z"/>
<path style="fill:#646464; stroke:none;" d="M736 377L737 378L736 377z"/>
<path style="fill:#a6a6a6; stroke:none;" d="M736.333 378.667L736.667 379.333L736.333 378.667z"/>
<path style="fill:#646464; stroke:none;" d="M677 384L677 385L680 385L677 384z"/>
<path style="fill:#a6a6a6; stroke:none;" d="M680 384L681 385L680 384M675 385L674 387L675 385z"/>
<path style="fill:#020202; stroke:none;" d="M678 452C672.321 428.947 686.095 407.137 682 385C673.147 385.288 671.554 392.489 669.63 400C665.988 414.21 665.651 428.405 666.015 443C666.176 449.477 668.136 457.639 675.004 460.091C681.31 462.343 687.359 456.379 690.985 451.961C700.352 440.549 706.163 426.311 712.231 413C713.492 410.234 720.794 396.357 715.708 394.752C710.682 393.166 707.257 404.84 705.86 408C698.988 423.544 691.862 441.431 678 452z"/>
<path style="fill:#a6a6a6; stroke:none;" d="M682 385L683 386L682 385z"/>
<path style="fill:#646464; stroke:none;" d="M682 386L683 387L682 386z"/>
<path style="fill:#343434; stroke:none;" d="M682 387L683 388L682 387z"/>
<path style="fill:#a6a6a6; stroke:none;" d="M725 387L725 408L726 408L725 387z"/>
<path style="fill:#646464; stroke:none;" d="M673 388L674 389L673 388z"/>
<path style="fill:#a6a6a6; stroke:none;" d="M672 389L673 390L672 389z"/>
<path style="fill:#646464; stroke:none;" d="M672 390L673 391L672 390z"/>
<path style="fill:#a6a6a6; stroke:none;" d="M736 390L736 405L737 405L736 390z"/>
<path style="fill:#646464; stroke:none;" d="M671 392L672 393L671 392z"/>
<path style="fill:#343434; stroke:none;" d="M671 393L672 394L671 393z"/>
<path style="fill:#646464; stroke:none;" d="M714 393L715 394L714 393z"/>
<path style="fill:#343434; stroke:none;" d="M715 393L716 394L715 393z"/>
<path style="fill:#646464; stroke:none;" d="M716 393L717 394L716 393z"/>
<path style="fill:#a6a6a6; stroke:none;" d="M670 394L671 395L670 394z"/>
<path style="fill:#343434; stroke:none;" d="M682 394L683 395L682 394z"/>
<path style="fill:#a6a6a6; stroke:none;" d="M712 394L713 395L712 394z"/>
<path style="fill:#646464; stroke:none;" d="M717 394L718 395L717 394M670 395L671 396L670 395M682 395L683 396L682 395z"/>
<path style="fill:#a6a6a6; stroke:none;" d="M711 395L712 396L711 395z"/>
<path style="fill:#343434; stroke:none;" d="M670 396L671 397L670 396z"/>
<path style="fill:#a6a6a6; stroke:none;" d="M682.333 396.667L682.667 397.333L682.333 396.667z"/>
<path style="fill:#343434; stroke:none;" d="M711 396L712 397L711 396z"/>
<path style="fill:#646464; stroke:none;" d="M710 397L711 398L710 397z"/>
<path style="fill:#a6a6a6; stroke:none;" d="M669 398L670 399L669 398z"/>
<path style="fill:#343434; stroke:none;" d="M717 398L718 399L717 398z"/>
<path style="fill:#646464; stroke:none;" d="M669 399L670 400L669 399z"/>
<path style="fill:#343434; stroke:none;" d="M681 399L682 400L681 399z"/>
<path style="fill:#646464; stroke:none;" d="M709 399L710 400L709 399M717 399L718 400L717 399z"/>
<path style="fill:#343434; stroke:none;" d="M669 400L670 401L669 400z"/>
<path style="fill:#646464; stroke:none;" d="M681 400L682 401L681 400z"/>
<path style="fill:#a6a6a6; stroke:none;" d="M717 400L718 401L717 400z"/>
<path style="fill:#646464; stroke:none;" d="M230 401L230 402L245 402L230 401z"/>
<path style="fill:#a6a6a6; stroke:none;" d="M257 401L260 404L257 401z"/>
<path style="fill:#646464; stroke:none;" d="M258 401L258 402L267 402L258 401z"/>
<path style="fill:#a6a6a6; stroke:none;" d="M267 401L268 402L267 401M681.333 401.667L681.667 402.333L681.333 401.667M708 401L709 402L708 401M231 402L232 403L231 402z"/>
<path style="fill:#020202; stroke:none;" d="M233 402L248 435L249 435L264 402L260 402L251 425L243 402L233 402z"/>
<path style="fill:#a6a6a6; stroke:none;" d="M243 402L244 403L243 402z"/>
<path style="fill:#343434; stroke:none;" d="M259 402L260 403L259 402M264 402L265 403L264 402z"/>
<path style="fill:#a6a6a6; stroke:none;" d="M265 402L266 403L265 402M668 402L669 403L668 402z"/>
<path style="fill:#343434; stroke:none;" d="M708 402L709 403L708 402M716 402L717 403L716 402M233 403L234 404L233 403z"/>
<path style="fill:#646464; stroke:none;" d="M242.333 403.667L242.667 404.333L242.333 403.667z"/>
<path style="fill:#343434; stroke:none;" d="M263 403L264 404L263 403z"/>
<path style="fill:#646464; stroke:none;" d="M668 403L669 404L668 403z"/>
<path style="fill:#a6a6a6; stroke:none;" d="M707 403L708 404L707 403M716 403L717 404L716 403z"/>
<path style="fill:#343434; stroke:none;" d="M234 404L235 405L234 404z"/>
<path style="fill:#646464; stroke:none;" d="M259 404L260 405L259 404z"/>
<path style="fill:#343434; stroke:none;" d="M668 404L669 405L668 404M680 404L681 405L680 404z"/>
<path style="fill:#646464; stroke:none;" d="M707 404L708 405L707 404z"/>
<path style="fill:#a6a6a6; stroke:none;" d="M234 405L235 406L234 405z"/>
<path style="fill:#343434; stroke:none;" d="M259 405L260 406L259 405z"/>
<path style="fill:#646464; stroke:none;" d="M262 405L263 406L262 405z"/>
<path style="fill:#a6a6a6; stroke:none;" d="M293.667 405.333L294.333 405.667L293.667 405.333M350 405L350 406L357 406L350 405M393.667 405.333L394.333 405.667L393.667 405.333M421 405L421 406L424 406L421 405M447 405L447 406L449 413L450 413L450 405L447 405z"/>
<path style="fill:#343434; stroke:none;" d="M470 405L471 406L470 405z"/>
<path style="fill:#a6a6a6; stroke:none;" d="M545.667 405.333L546.333 405.667L545.667 405.333M560 405L563 408L560 405M599.667 405.333L600.333 405.667L599.667 405.333M625.667 405.333L626.333 405.667L625.667 405.333M642 405L642 406L649 406L642 405z"/>
<path style="fill:#646464; stroke:none;" d="M680 405L681 406L680 405M715 405L716 406L715 405z"/>
<path style="fill:#a6a6a6; stroke:none;" d="M243 406L244 407L243 406M258 406L259 407L258 406M273 406L274 407L273 406z"/>
<path style="fill:#343434; stroke:none;" d="M274 406L274 407L290 407L274 406z"/>
<path style="fill:#020202; stroke:none;" d="M276 407C277.611 415.677 278.492 426.759 275 435L296 435L297 429L283 433L283 421L293 423L293 418L283 420L283 408L295 410L295 406L276 407z"/>
<path style="fill:#646464; stroke:none;" d="M306 406L307 407L306 406z"/>
<path style="fill:#343434; stroke:none;" d="M307 406L307 407L322 407L307 406z"/>
<path style="fill:#646464; stroke:none;" d="M322.667 406.333L323.333 406.667L322.667 406.333z"/>
<path style="fill:#a6a6a6; stroke:none;" d="M324 406L325 407L324 406z"/>
<path style="fill:#343434; stroke:none;" d="M348 406L349 407L348 406z"/>
<path style="fill:#020202; stroke:none;" d="M345 427L344 427C344.309 436.449 358.325 438.527 362.141 429.895C366.239 420.625 353.999 418.974 350.752 412.922C346.911 405.764 358.338 408.669 361 410L361 406C354.841 406 338.331 407.057 345.746 417.816C348.487 421.792 356.637 423.814 357.369 428.995C358.612 437.804 346.83 430.83 345 427z"/>
<path style="fill:#a6a6a6; stroke:none;" d="M361.333 406.667L361.667 407.333L361.333 406.667z"/>
<path style="fill:#646464; stroke:none;" d="M373 406L374 407L373 406z"/>
<path style="fill:#343434; stroke:none;" d="M374 406L374 407L390 407L374 406z"/>
<path style="fill:#020202; stroke:none;" d="M376 407C376 414.45 378.595 427.935 374 434L374 435L395 435L396 430L382 433C382.001 424.943 382.809 419.682 392 423L392 418L382 420L382 408L394 409C392.997 404.317 380.518 407 376 407z"/>
<path style="fill:#646464; stroke:none;" d="M394 406L394 413L395 413L394 406M421 406L421 412L422 412L421 406z"/>
<path style="fill:#020202; stroke:none;" d="M422 406L422 410L432 408C432 415.251 434.478 428.089 430 434L430 435L440 435L439 408L449 410L449 406L422 406z"/>
<path style="fill:#a6a6a6; stroke:none;" d="M469 406L470 407L469 406z"/>
<path style="fill:#020202; stroke:none;" d="M470 406L456 435L462 435C461.404 424.577 475.832 424.541 475 435L486 435L486 434L470 406z"/>
<path style="fill:#a6a6a6; stroke:none;" d="M471 406L472 407L471 406M493 406L494 407L493 406z"/>
<path style="fill:#343434; stroke:none;" d="M494 406L494 407L505 407L494 406z"/>
<path style="fill:#646464; stroke:none;" d="M505 406L506 407L505 406z"/>
<path style="fill:#a6a6a6; stroke:none;" d="M506 406L507 407L506 406z"/>
<path style="fill:#646464; stroke:none;" d="M525 406L526 407L525 406z"/>
<path style="fill:#343434; stroke:none;" d="M526 406L526 407L542 407L526 406z"/>
<path style="fill:#020202; stroke:none;" d="M528 407C529.17 416.256 530.252 426.077 527 435C533.438 435 546.267 437.941 548 430L535 433L535 421L544 423L544 419L535 420L535 408L546 409C544.997 404.317 532.518 407 528 407z"/>
<path style="fill:#343434; stroke:none;" d="M546 406L546 411L547 411L546 406z"/>
<path style="fill:#020202; stroke:none;" d="M560 406C561.202 415.514 562.341 425.832 559 435L568 435L566 416L589 435L589 407L582 407L583 425L560 406z"/>
<path style="fill:#646464; stroke:none;" d="M579 406L580 407L579 406z"/>
<path style="fill:#343434; stroke:none;" d="M580 406L580 407L591 407L580 406z"/>
<path style="fill:#646464; stroke:none;" d="M591 406L592 407L591 406z"/>
<path style="fill:#343434; stroke:none;" d="M599 406L599 411L602 408L599 406z"/>
<path style="fill:#020202; stroke:none;" d="M600 409L610 408L608 435L618 435L616 408L627 410L627 406C621.575 406 601.236 403.231 600 409z"/>
<path style="fill:#343434; stroke:none;" d="M640 406L641 407L640 406z"/>
<path style="fill:#020202; stroke:none;" d="M637 427L636 427C636.309 436.449 650.325 438.527 654.141 429.895C658.239 420.626 645.999 418.974 642.752 412.922C638.911 405.764 650.338 408.669 653 410L653 406C646.841 406 630.331 407.057 637.746 417.816C640.487 421.792 648.638 423.814 649.369 428.995C650.612 437.804 638.83 430.83 637 427z"/>
<path style="fill:#a6a6a6; stroke:none;" d="M653.333 406.667L653.667 407.333L653.333 406.667M667.333 406.667L667.667 407.333L667.333 406.667M680.333 406.667L680.667 407.333L680.333 406.667z"/>
<path style="fill:#646464; stroke:none;" d="M706 406L707 407L706 406z"/>
<path style="fill:#a6a6a6; stroke:none;" d="M715 406L716 407L715 406M235 407L236 408L235 407z"/>
<path style="fill:#343434; stroke:none;" d="M243 407L244 408L243 407M258 407L259 408L258 407z"/>
<path style="fill:#646464; stroke:none;" d="M261 407L262 408L261 407z"/>
<path style="fill:#a6a6a6; stroke:none;" d="M275 407L276 408L275 407z"/>
<path style="fill:#646464; stroke:none;" d="M308 407L309 408L308 407z"/>
<path style="fill:#020202; stroke:none;" d="M309 407L308 435L318 435L318 434C313.522 428.089 316 415.251 316 408C324.658 408.968 325.552 416.009 319 421C323.275 429.32 326.092 434.21 336 435L336 434L325 423L325 421C330.561 418.256 333.224 410.704 325.956 407.742C321.133 405.777 314.134 407 309 407z"/>
<path style="fill:#343434; stroke:none;" d="M326 407L327 408L326 407z"/>
<path style="fill:#a6a6a6; stroke:none;" d="M327 407L328 408L327 407z"/>
<path style="fill:#646464; stroke:none;" d="M346 407L347 408L346 407M352.667 407.333L353.333 407.667L352.667 407.333z"/>
<path style="fill:#a6a6a6; stroke:none;" d="M354 407L355 408L354 407z"/>
<path style="fill:#646464; stroke:none;" d="M355 407L356 408L355 407z"/>
<path style="fill:#343434; stroke:none;" d="M356 407L357 408L356 407z"/>
<path style="fill:#646464; stroke:none;" d="M469 407L470 408L469 407M495 407L496 408L495 407z"/>
<path style="fill:#020202; stroke:none;" d="M496 407C497.611 415.677 498.492 426.759 495 435L516 435L517 429L503 433L504 407L496 407z"/>
<path style="fill:#646464; stroke:none;" d="M527 407L528 408L527 407M581 407L582 408L581 407M589 407L590 408L589 407M638 407L639 408L638 407M644.667 407.333L645.333 407.667L644.667 407.333z"/>
<path style="fill:#a6a6a6; stroke:none;" d="M646 407L647 408L646 407z"/>
<path style="fill:#646464; stroke:none;" d="M647 407L648 408L647 407z"/>
<path style="fill:#343434; stroke:none;" d="M648 407L649 408L648 407M714 407L715 408L714 407z"/>
<path style="fill:#a6a6a6; stroke:none;" d="M244 408L245 409L244 408M257 408L258 409L257 408M283 408L283 420L290 420L290 419L284 419L283 408M291 408L292 409L291 408z"/>
<path style="fill:#646464; stroke:none;" d="M292 408L293 409L292 408z"/>
<path style="fill:#a6a6a6; stroke:none;" d="M319 408L320 409L319 408z"/>
<path style="fill:#646464; stroke:none;" d="M320 408L321 409L320 408z"/>
<path style="fill:#343434; stroke:none;" d="M328 408L329 409L328 408z"/>
<path style="fill:#a6a6a6; stroke:none;" d="M345 408L346 409L345 408z"/>
<path style="fill:#646464; stroke:none;" d="M350 408L351 409L350 408M358 408L359 409L358 408z"/>
<path style="fill:#a6a6a6; stroke:none;" d="M375 408L376 409L375 408z"/>
<path style="fill:#343434; stroke:none;" d="M382 408L382 420L383 420L382 408z"/>
<path style="fill:#a6a6a6; stroke:none;" d="M390.667 408.333L391.333 408.667L390.667 408.333M424 408L425 409L424 408M445 408L446 409L445 408z"/>
<path style="fill:#646464; stroke:none;" d="M446 408L447 409L446 408z"/>
<path style="fill:#a6a6a6; stroke:none;" d="M472 408L473 409L472 408z"/>
<path style="fill:#646464; stroke:none;" d="M503 408L504 409L503 408z"/>
<path style="fill:#a6a6a6; stroke:none;" d="M543 408L544 409L543 408z"/>
<path style="fill:#343434; stroke:none;" d="M544 408L545 409L544 408z"/>
<path style="fill:#646464; stroke:none;" d="M563 408L564 409L563 408z"/>
<path style="fill:#a6a6a6; stroke:none;" d="M602 408L603 409L602 408M609 408L609 432L610 432L609 408z"/>
<path style="fill:#646464; stroke:none;" d="M616 408L616 432L617 432L616 408z"/>
<path style="fill:#a6a6a6; stroke:none;" d="M623 408L624 409L623 408z"/>
<path style="fill:#646464; stroke:none;" d="M624 408L625 409L624 408z"/>
<path style="fill:#a6a6a6; stroke:none;" d="M637 408L638 409L637 408z"/>
<path style="fill:#646464; stroke:none;" d="M642 408L643 409L642 408M650 408L651 409L650 408M667 408L668 409L667 408M705 408L706 409L705 408z"/>
<path style="fill:#a6a6a6; stroke:none;" d="M714 408L715 409L714 408z"/>
<path style="fill:#646464; stroke:none;" d="M725 408L725 411L726 411L725 408M236 409L237 410L236 409M244 409L245 410L244 409M257 409L258 410L257 409M260 409L261 410L260 409M276 409L276 432L277 432L276 409z"/>
<path style="fill:#a6a6a6; stroke:none;" d="M293 409L294 410L293 409z"/>
<path style="fill:#343434; stroke:none;" d="M322 409L323 410L322 409M329 409L330 410L329 409z"/>
<path style="fill:#a6a6a6; stroke:none;" d="M344 409L345 410L344 409z"/>
<path style="fill:#646464; stroke:none;" d="M349 409L350 410L349 409z"/>
<path style="fill:#343434; stroke:none;" d="M359 409L360 410L359 409M393 409L394 410L393 409z"/>
<path style="fill:#a6a6a6; stroke:none;" d="M447 409L448 410L447 409z"/>
<path style="fill:#646464; stroke:none;" d="M468 409L469 410L468 409z"/>
<path style="fill:#343434; stroke:none;" d="M472 409L473 410L472 409z"/>
<path style="fill:#646464; stroke:none;" d="M496 409L496 432L497 432L496 409z"/>
<path style="fill:#a6a6a6; stroke:none;" d="M503 409L503 433L504 433L503 409z"/>
<path style="fill:#343434; stroke:none;" d="M560 409L560 432L561 432L560 409z"/>
<path style="fill:#646464; stroke:none;" d="M564 409L565 410L564 409z"/>
<path style="fill:#343434; stroke:none;" d="M582 409L582 425L583 425L582 409M588 409L588 432L589 432L588 409z"/>
<path style="fill:#a6a6a6; stroke:none;" d="M625 409L626 410L625 409M636 409L637 410L636 409z"/>
<path style="fill:#646464; stroke:none;" d="M641 409L642 410L641 409z"/>
<path style="fill:#343434; stroke:none;" d="M651 409L652 410L651 409M667 409L668 410L667 409M679 409L680 410L679 409M735 409L735 414L736 414L735 409z"/>
<path style="fill:#a6a6a6; stroke:none;" d="M260 410L261 411L260 410z"/>
<path style="fill:#343434; stroke:none;" d="M294 410L295 411L294 410M323 410L324 411L323 410z"/>
<path style="fill:#646464; stroke:none;" d="M330 410L331 411L330 410M344 410L345 411L344 410z"/>
<path style="fill:#a6a6a6; stroke:none;" d="M349 410L350 411L349 410z"/>
<path style="fill:#343434; stroke:none;" d="M360 410L361 411L360 410z"/>
<path style="fill:#a6a6a6; stroke:none;" d="M393 410L394 411L393 410M422 410L423 411L422 410z"/>
<path style="fill:#646464; stroke:none;" d="M448 410L449 411L448 410z"/>
<path style="fill:#a6a6a6; stroke:none;" d="M473 410L474 411L473 410z"/>
<path style="fill:#343434; stroke:none;" d="M528 410L528 432L529 432L528 410M565 410L566 411L565 410M626 410L627 411L626 410z"/>
<path style="fill:#646464; stroke:none;" d="M636 410L637 411L636 410z"/>
<path style="fill:#a6a6a6; stroke:none;" d="M641 410L642 411L641 410z"/>
<path style="fill:#343434; stroke:none;" d="M652 410L653 411L652 410z"/>
<path style="fill:#646464; stroke:none;" d="M679 410L680 411L679 410z"/>
<path style="fill:#a6a6a6; stroke:none;" d="M704 410L705 411L704 410z"/>
<path style="fill:#646464; stroke:none;" d="M713 410L714 411L713 410M237 411L238 412L237 411M245 411L246 412L245 411z"/>
<path style="fill:#a6a6a6; stroke:none;" d="M256 411L257 412L256 411z"/>
<path style="fill:#343434; stroke:none;" d="M259 411L260 412L259 411z"/>
<path style="fill:#646464; stroke:none;" d="M294 411L295 412L294 411M323 411L324 412L323 411z"/>
<path style="fill:#343434; stroke:none;" d="M330 411L331 412L330 411M344 411L345 412L344 411z"/>
<path style="fill:#646464; stroke:none;" d="M360 411L361 412L360 411z"/>
<path style="fill:#a6a6a6; stroke:none;" d="M467 411L468 412L467 411z"/>
<path style="fill:#343434; stroke:none;" d="M473 411L474 412L473 411z"/>
<path style="fill:#646464; stroke:none;" d="M546.333 411.667L546.667 412.333L546.333 411.667z"/>
<path style="fill:#343434; stroke:none;" d="M566 411L567 412L566 411z"/>
<path style="fill:#646464; stroke:none;" d="M599.333 411.667L599.667 412.333L599.333 411.667M626 411L627 412L626 411z"/>
<path style="fill:#343434; stroke:none;" d="M636 411L637 412L636 411z"/>
<path style="fill:#646464; stroke:none;" d="M652 411L653 412L652 411z"/>
<path style="fill:#a6a6a6; stroke:none;" d="M679.333 411.667L679.667 412.333L679.333 411.667z"/>
<path style="fill:#343434; stroke:none;" d="M704 411L705 412L704 411M725 411L725 414L726 414L725 411M245 412L246 413L245 412M256 412L257 413L256 412z"/>
<path style="fill:#a6a6a6; stroke:none;" d="M259 412L260 413L259 412M294 412L295 413L294 412M323 412L324 413L323 412M349 412L350 413L349 412M421 412L422 413L421 412z"/>
<path style="fill:#343434; stroke:none;" d="M467 412L468 413L467 412z"/>
<path style="fill:#a6a6a6; stroke:none;" d="M474 412L475 413L474 412z"/>
<path style="fill:#343434; stroke:none;" d="M567 412L568 413L567 412z"/>
<path style="fill:#a6a6a6; stroke:none;" d="M568 412L569 413L568 412M626 412L627 413L626 412M641 412L642 413L641 412M666.333 412.667L666.667 413.333L666.333 412.667M703 412L704 413L703 412z"/>
<path style="fill:#646464; stroke:none;" d="M712 412L713 413L712 412M238 413L239 414L238 413z"/>
<path style="fill:#a6a6a6; stroke:none;" d="M246 413L247 414L246 413M255 413L256 414L255 413z"/>
<path style="fill:#343434; stroke:none;" d="M258 413L259 414L258 413z"/>
<path style="fill:#a6a6a6; stroke:none;" d="M331.333 413.667L331.667 414.333L331.333 413.667M343 413L344 414L343 413M466 413L467 414L466 413z"/>
<path style="fill:#343434; stroke:none;" d="M474 413L475 414L474 413z"/>
<path style="fill:#a6a6a6; stroke:none;" d="M569 413L570 414L569 413M635 413L636 414L635 413z"/>
<path style="fill:#343434; stroke:none;" d="M703 413L704 414L703 413z"/>
<path style="fill:#a6a6a6; stroke:none;" d="M712 413L713 414L712 413M238 414L239 415L238 414z"/>
<path style="fill:#343434; stroke:none;" d="M246 414L247 415L246 414M255 414L256 415L255 414z"/>
<path style="fill:#a6a6a6; stroke:none;" d="M258 414L259 415L258 414M351 414L352 415L351 414z"/>
<path style="fill:#343434; stroke:none;" d="M466 414L467 415L466 414z"/>
<path style="fill:#a6a6a6; stroke:none;" d="M475 414L476 415L475 414M570 414L571 415L570 414M643 414L644 415L643 414z"/>
<path style="fill:#646464; stroke:none;" d="M666 414L667 415L666 414z"/>
<path style="fill:#a6a6a6; stroke:none;" d="M702 414L703 415L702 414z"/>
<path style="fill:#343434; stroke:none;" d="M711 414L712 415L711 414z"/>
<path style="fill:#646464; stroke:none;" d="M735 414L735 425L736 425L735 414z"/>
<path style="fill:#343434; stroke:none;" d="M239 415L240 416L239 415z"/>
<path style="fill:#a6a6a6; stroke:none;" d="M292 415L293 416L292 415M323 415L324 416L323 415z"/>
<path style="fill:#343434; stroke:none;" d="M352 415L353 416L352 415z"/>
<path style="fill:#a6a6a6; stroke:none;" d="M353 415L354 416L353 415M465 415L466 416L465 415z"/>
<path style="fill:#343434; stroke:none;" d="M475 415L476 416L475 415z"/>
<path style="fill:#a6a6a6; stroke:none;" d="M544 415L545 416L544 415z"/>
<path style="fill:#646464; stroke:none;" d="M571 415L572 416L571 415z"/>
<path style="fill:#343434; stroke:none;" d="M644 415L645 416L644 415z"/>
<path style="fill:#a6a6a6; stroke:none;" d="M645 415L646 416L645 415z"/>
<path style="fill:#343434; stroke:none;" d="M666.333 415.667L666.667 416.333L666.333 415.667M678 415L679 416L678 415z"/>
<path style="fill:#646464; stroke:none;" d="M702 415L703 416L702 415z"/>
<path style="fill:#a6a6a6; stroke:none;" d="M711 415L712 416L711 415M239 416L240 417L239 416z"/>
<path style="fill:#646464; stroke:none;" d="M247 416L248 417L247 416M254 416L255 417L254 416M257 416L258 417L257 416M292 416L293 417L292 416M323 416L324 417L323 416z"/>
<path style="fill:#343434; stroke:none;" d="M330 416L331 417L330 416z"/>
<path style="fill:#646464; stroke:none;" d="M344 416L345 417L344 416M354 416L355 417L354 416z"/>
<path style="fill:#a6a6a6; stroke:none;" d="M392 416L392 426L393 426L392 416z"/>
<path style="fill:#343434; stroke:none;" d="M465 416L466 417L465 416z"/>
<path style="fill:#a6a6a6; stroke:none;" d="M468 416L469 417L468 416M476 416L477 417L476 416z"/>
<path style="fill:#646464; stroke:none;" d="M544 416L544 425L545 425L544 416z"/>
<path style="fill:#343434; stroke:none;" d="M566 416L566 432L567 432L568 416L566 416z"/>
<path style="fill:#646464; stroke:none;" d="M572 416L573 417L572 416M636 416L637 417L636 416M646 416L647 417L646 416M678 416L679 417L678 416z"/>
<path style="fill:#343434; stroke:none;" d="M710 416L711 417L710 416M240 417L241 418L240 417M292 417L293 418L292 417M323 417L324 418L323 417z"/>
<path style="fill:#a6a6a6; stroke:none;" d="M330 417L331 418L330 417M344 417L345 418L344 417z"/>
<path style="fill:#343434; stroke:none;" d="M355 417L356 418L355 417z"/>
<path style="fill:#a6a6a6; stroke:none;" d="M356 417L357 418L356 417M464 417L465 418L464 417z"/>
<path style="fill:#343434; stroke:none;" d="M467 417L468 418L467 417z"/>
<path style="fill:#ffffff; stroke:none;" d="M468 417L465 425L472 425L468 417z"/>
<path style="fill:#646464; stroke:none;" d="M469 417L470 418L469 417z"/>
<path style="fill:#343434; stroke:none;" d="M476 417L477 418L476 417z"/>
<path style="fill:#646464; stroke:none;" d="M568 417L569 418L568 417z"/>
<path style="fill:#343434; stroke:none;" d="M573 417L574 418L573 417z"/>
<path style="fill:#a6a6a6; stroke:none;" d="M636 417L637 418L636 417z"/>
<path style="fill:#343434; stroke:none;" d="M647 417L648 418L647 417z"/>
<path style="fill:#a6a6a6; stroke:none;" d="M648 417L649 418L648 417M678.333 417.667L678.667 418.333L678.333 417.667z"/>
<path style="fill:#646464; stroke:none;" d="M701 417L702 418L701 417z"/>
<path style="fill:#a6a6a6; stroke:none;" d="M710 417L711 418L710 417M240 418L241 419L240 418M248 418L249 419L248 418M253 418L254 419L253 418z"/>
<path style="fill:#646464; stroke:none;" d="M256 418L257 419L256 418M291 418L292 419L291 418z"/>
<path style="fill:#a6a6a6; stroke:none;" d="M322 418L323 419L322 418z"/>
<path style="fill:#343434; stroke:none;" d="M329 418L328 420L329 418z"/>
<path style="fill:#a6a6a6; stroke:none;" d="M345 418L346 419L345 418z"/>
<path style="fill:#646464; stroke:none;" d="M357 418L358 419L357 418M464 418L465 419L464 418z"/>
<path style="fill:#a6a6a6; stroke:none;" d="M467 418L468 419L467 418M477 418L478 419L477 418z"/>
<path style="fill:#343434; stroke:none;" d="M543 418L544 419L543 418z"/>
<path style="fill:#646464; stroke:none;" d="M569 418L570 419L569 418z"/>
<path style="fill:#343434; stroke:none;" d="M574 418L575 419L574 418z"/>
<path style="fill:#a6a6a6; stroke:none;" d="M637 418L638 419L637 418z"/>
<path style="fill:#646464; stroke:none;" d="M649 418L650 419L649 418z"/>
<path style="fill:#343434; stroke:none;" d="M241 419L242 420L241 419M248 419L249 420L248 419M253 419L254 420L253 419M290 419L291 420L290 419z"/>
<path style="fill:#a6a6a6; stroke:none;" d="M321 419L322 420L321 419M329 419L330 420L329 419M346 419L347 420L346 419M359 419L360 420L359 419M383 419L383 420L389 420L383 419z"/>
<path style="fill:#646464; stroke:none;" d="M389 419L390 420L389 419z"/>
<path style="fill:#343434; stroke:none;" d="M466 419L467 420L466 419z"/>
<path style="fill:#646464; stroke:none;" d="M470 419L471 420L470 419M477 419L478 420L477 419z"/>
<path style="fill:#a6a6a6; stroke:none;" d="M535 419L535 420L542 420L535 419z"/>
<path style="fill:#343434; stroke:none;" d="M542 419L543 420L542 419z"/>
<path style="fill:#a6a6a6; stroke:none;" d="M570 419L571 420L570 419z"/>
<path style="fill:#343434; stroke:none;" d="M575 419L576 420L575 419z"/>
<path style="fill:#a6a6a6; stroke:none;" d="M638 419L639 420L638 419M651 419L652 420L651 419z"/>
<path style="fill:#646464; stroke:none;" d="M700 419L701 420L700 419M709 419L710 420L709 419z"/>
<path style="fill:#a6a6a6; stroke:none;" d="M241 420L242 421L241 420M249 420L250 421L249 420M252 420L253 421L252 420z"/>
<path style="fill:#646464; stroke:none;" d="M255 420L256 421L255 420z"/>
<path style="fill:#a6a6a6; stroke:none;" d="M317 420L319 422L317 420z"/>
<path style="fill:#646464; stroke:none;" d="M318.667 420.333L319.333 420.667L318.667 420.333z"/>
<path style="fill:#343434; stroke:none;" d="M320 420L321 421L320 420M327 420L328 421L327 420z"/>
<path style="fill:#a6a6a6; stroke:none;" d="M347 420L348 421L347 420z"/>
<path style="fill:#343434; stroke:none;" d="M348 420L349 421L348 420M360 420L361 421L360 420z"/>
<path style="fill:#646464; stroke:none;" d="M463 420L464 421L463 420z"/>
<path style="fill:#a6a6a6; stroke:none;" d="M466 420L467 421L466 420M470 420L471 421L470 420M571 420L572 421L571 420M577 420L578 421L577 420M639 420L640 421L639 420z"/>
<path style="fill:#343434; stroke:none;" d="M640 420L641 421L640 420M652 420L653 421L652 420z"/>
<path style="fill:#a6a6a6; stroke:none;" d="M665.333 420.667L665.667 421.333L665.333 420.667z"/>
<path style="fill:#646464; stroke:none;" d="M249 421L250 422L249 421z"/>
<path style="fill:#343434; stroke:none;" d="M252 421L253 422L252 421z"/>
<path style="fill:#a6a6a6; stroke:none;" d="M255 421L256 422L255 421z"/>
<path style="fill:#343434; stroke:none;" d="M283 421L284 422L283 421z"/>
<path style="fill:#646464; stroke:none;" d="M284 421L284 422L289 422L284 421z"/>
<path style="fill:#343434; stroke:none;" d="M289 421L290 422L289 421z"/>
<path style="fill:#646464; stroke:none;" d="M325.333 421.667L325.667 422.333L325.333 421.667M349 421L350 422L349 421z"/>
<path style="fill:#343434; stroke:none;" d="M361 421L362 422L361 421z"/>
<path style="fill:#646464; stroke:none;" d="M383 421L383 422L388 422L383 421z"/>
<path style="fill:#343434; stroke:none;" d="M388 421L389 422L388 421M471 421L472 422L471 421z"/>
<path style="fill:#646464; stroke:none;" d="M478 421L479 422L478 421M535 421L535 422L541 422L535 421z"/>
<path style="fill:#a6a6a6; stroke:none;" d="M572 421L573 422L572 421M578 421L579 422L578 421z"/>
<path style="fill:#646464; stroke:none;" d="M641 421L642 422L641 421z"/>
<path style="fill:#343434; stroke:none;" d="M653 421L654 422L653 421M677 421L678 422L677 421z"/>
<path style="fill:#646464; stroke:none;" d="M699 421L700 422L699 421M708 421L709 422L708 421M242 422L243 423L242 422z"/>
<path style="fill:#343434; stroke:none;" d="M254 422L255 423L254 422z"/>
<path style="fill:#a6a6a6; stroke:none;" d="M283 422L283 433L284 433L283 422z"/>
<path style="fill:#343434; stroke:none;" d="M291 422L292 423L291 422z"/>
<path style="fill:#a6a6a6; stroke:none;" d="M319 422L320 423L319 422M350 422L351 423L350 422z"/>
<path style="fill:#343434; stroke:none;" d="M351 422L352 423L351 422z"/>
<path style="fill:#646464; stroke:none;" d="M362 422L363 423L362 422z"/>
<path style="fill:#343434; stroke:none;" d="M382 422L382 433L383 433L382 422z"/>
<path style="fill:#646464; stroke:none;" d="M390 422L391 423L390 422M462 422L463 423L462 422M465 422L466 423L465 422z"/>
<path style="fill:#a6a6a6; stroke:none;" d="M471 422L472 423L471 422M542 422L543 423L542 422z"/>
<path style="fill:#343434; stroke:none;" d="M574 422L575 423L574 422z"/>
<path style="fill:#a6a6a6; stroke:none;" d="M579 422L580 423L579 422M642 422L643 423L642 422z"/>
<path style="fill:#343434; stroke:none;" d="M643 422L644 423L643 422z"/>
<path style="fill:#646464; stroke:none;" d="M654 422L655 423L654 422M665 422L665 426L666 426L665 422M677.333 422.667L677.667 423.333L677.333 422.667z"/>
<path style="fill:#a6a6a6; stroke:none;" d="M250 423L251 424L250 423z"/>
<path style="fill:#646464; stroke:none;" d="M251 423L252 424L251 423z"/>
<path style="fill:#a6a6a6; stroke:none;" d="M254 423L255 424L254 423z"/>
<path style="fill:#343434; stroke:none;" d="M292 423L293 424L292 423M320 423L321 424L320 423z"/>
<path style="fill:#a6a6a6; stroke:none;" d="M327 423L328 424L327 423M352 423L353 424L352 423z"/>
<path style="fill:#646464; stroke:none;" d="M391 423L392 424L391 423z"/>
<path style="fill:#a6a6a6; stroke:none;" d="M465 423L466 424L465 423z"/>
<path style="fill:#646464; stroke:none;" d="M479 423L480 424L479 423z"/>
<path style="fill:#a6a6a6; stroke:none;" d="M543 423L544 424L543 423z"/>
<path style="fill:#343434; stroke:none;" d="M575 423L576 424L575 423z"/>
<path style="fill:#646464; stroke:none;" d="M580 423L581 424L580 423z"/>
<path style="fill:#a6a6a6; stroke:none;" d="M644 423L645 424L644 423M698 423L699 424L698 423z"/>
<path style="fill:#646464; stroke:none;" d="M707 423L708 424L707 423M243 424L244 425L243 424z"/>
<path style="fill:#343434; stroke:none;" d="M250 424L251 425L250 424M253 424L254 425L253 424z"/>
<path style="fill:#646464; stroke:none;" d="M292 424L293 425L292 424z"/>
<path style="fill:#a6a6a6; stroke:none;" d="M320 424L321 425L320 424z"/>
<path style="fill:#343434; stroke:none;" d="M354 424L355 425L354 424z"/>
<path style="fill:#a6a6a6; stroke:none;" d="M363 424L364 425L363 424M461 424L462 425L461 424z"/>
<path style="fill:#343434; stroke:none;" d="M464 424L465 425L464 424z"/>
<path style="fill:#646464; stroke:none;" d="M472.333 424.667L472.667 425.333L472.333 424.667z"/>
<path style="fill:#343434; stroke:none;" d="M576 424L577 425L576 424z"/>
<path style="fill:#646464; stroke:none;" d="M581 424L582 425L581 424z"/>
<path style="fill:#343434; stroke:none;" d="M646 424L647 425L646 424z"/>
<path style="fill:#a6a6a6; stroke:none;" d="M655 424L656 425L655 424M677.333 424.667L677.667 425.333L677.333 424.667M707 424L708 425L707 424M253 425L254 426L253 425M292 425L293 426L292 425z"/>
<path style="fill:#343434; stroke:none;" d="M321 425L322 426L321 425M328 425L329 426L328 425z"/>
<path style="fill:#a6a6a6; stroke:none;" d="M355 425L356 426L355 425z"/>
<path style="fill:#646464; stroke:none;" d="M363.333 425.667L363.667 426.333L363.333 425.667M464 425L465 426L464 425z"/>
<path style="fill:#a6a6a6; stroke:none;" d="M465 425L465 426L472 426L465 425z"/>
<path style="fill:#646464; stroke:none;" d="M480 425L481 426L480 425z"/>
<path style="fill:#a6a6a6; stroke:none;" d="M544 425L545 426L544 425z"/>
<path style="fill:#646464; stroke:none;" d="M577 425L578 426L577 425z"/>
<path style="fill:#a6a6a6; stroke:none;" d="M647 425L648 426L647 425z"/>
<path style="fill:#646464; stroke:none;" d="M655.333 425.667L655.667 426.333L655.333 425.667z"/>
<path style="fill:#a6a6a6; stroke:none;" d="M697 425L698 426L697 425z"/>
<path style="fill:#343434; stroke:none;" d="M706 425L707 426L706 425z"/>
<path style="fill:#a6a6a6; stroke:none;" d="M735 425L735 476L736 476C736 461.689 740.508 438.127 735 425z"/>
<path style="fill:#646464; stroke:none;" d="M244 426L245 427L244 426z"/>
<path style="fill:#a6a6a6; stroke:none;" d="M297 426L296 428L298 428L297 426z"/>
<path style="fill:#646464; stroke:none;" d="M321 426L322 427L321 426M329 426L330 427L329 426z"/>
<path style="fill:#343434; stroke:none;" d="M344 426L345 427L344 426z"/>
<path style="fill:#a6a6a6; stroke:none;" d="M356 426L357 427L356 426M396 426L397 427L396 426M460 426L461 427L460 426M517 426L516 428L518 428L517 426M548.667 426.333L549.333 426.667L548.667 426.333z"/>
<path style="fill:#646464; stroke:none;" d="M578 426L579 427L578 426z"/>
<path style="fill:#343434; stroke:none;" d="M636 426L637 427L636 426z"/>
<path style="fill:#a6a6a6; stroke:none;" d="M648 426L649 427L648 426z"/>
<path style="fill:#343434; stroke:none;" d="M665 426L665 439L666 439L665 426z"/>
<path style="fill:#a6a6a6; stroke:none;" d="M706 426L707 427L706 426z"/>
<path style="fill:#646464; stroke:none;" d="M252 427L253 428L252 427z"/>
<path style="fill:#a6a6a6; stroke:none;" d="M330 427L331 428L330 427M363.333 427.667L363.667 428.333L363.333 427.667z"/>
<path style="fill:#343434; stroke:none;" d="M396 427L397 428L396 427M460 427L461 428L460 427z"/>
<path style="fill:#646464; stroke:none;" d="M463 427L464 428L463 427z"/>
<path style="fill:#a6a6a6; stroke:none;" d="M464 427L464 428L473 428L464 427z"/>
<path style="fill:#646464; stroke:none;" d="M473 427L474 428L473 427z"/>
<path style="fill:#a6a6a6; stroke:none;" d="M481 427L482 428L481 427z"/>
<path style="fill:#646464; stroke:none;" d="M548 427L549 428L548 427z"/>
<path style="fill:#a6a6a6; stroke:none;" d="M579 427L580 428L579 427M655.333 427.667L655.667 428.333L655.333 427.667M696 427L697 428L696 427z"/>
<path style="fill:#343434; stroke:none;" d="M705 427L706 428L705 427M245 428L246 429L245 428M296 428L297 429L296 428z"/>
<path style="fill:#a6a6a6; stroke:none;" d="M322 428L323 429L322 428z"/>
<path style="fill:#343434; stroke:none;" d="M330 428L331 429L330 428z"/>
<path style="fill:#a6a6a6; stroke:none;" d="M343 428L344 429L343 428M345 428L346 429L345 428z"/>
<path style="fill:#646464; stroke:none;" d="M358 428L358 431L359 431L358 428z"/>
<path style="fill:#a6a6a6; stroke:none;" d="M395 428L396 431L397 431L395 428z"/>
<path style="fill:#646464; stroke:none;" d="M396 428L397 429L396 428z"/>
<path style="fill:#a6a6a6; stroke:none;" d="M459 428L460 429L459 428z"/>
<path style="fill:#343434; stroke:none;" d="M474 428L475 429L474 428M516 428L517 429L516 428M548 428L549 429L548 428z"/>
<path style="fill:#a6a6a6; stroke:none;" d="M580 428L581 429L580 428M635 428L636 429L635 428M637 428L638 429L637 428z"/>
<path style="fill:#646464; stroke:none;" d="M650 428L650 431L651 431L650 428z"/>
<path style="fill:#343434; stroke:none;" d="M676.333 428.667L676.667 429.333L676.333 428.667z"/>
<path style="fill:#a6a6a6; stroke:none;" d="M705 428L706 429L705 428M245 429L246 430L245 429z"/>
<path style="fill:#646464; stroke:none;" d="M251 429L252 430L251 429z"/>
<path style="fill:#a6a6a6; stroke:none;" d="M295 429L296 430L295 429z"/>
<path style="fill:#343434; stroke:none;" d="M323 429L324 430L323 429z"/>
<path style="fill:#646464; stroke:none;" d="M331 429L332 430L331 429M343 429L344 430L343 429z"/>
<path style="fill:#343434; stroke:none;" d="M345 429L346 430L345 429M395 429L396 430L395 429M459 429L460 430L459 429z"/>
<path style="fill:#646464; stroke:none;" d="M462 429L463 430L462 429z"/>
<path style="fill:#a6a6a6; stroke:none;" d="M474 429L475 430L474 429M482 429L483 430L482 429M515 429L516 430L515 429z"/>
<path style="fill:#646464; stroke:none;" d="M547.667 429.333L548.333 429.667L547.667 429.333z"/>
<path style="fill:#a6a6a6; stroke:none;" d="M581 429L582 430L581 429z"/>
<path style="fill:#646464; stroke:none;" d="M635 429L636 430L635 429z"/>
<path style="fill:#343434; stroke:none;" d="M637 429L638 430L637 429z"/>
<path style="fill:#646464; stroke:none;" d="M695 429L696 430L695 429z"/>
<path style="fill:#343434; stroke:none;" d="M704 429L705 430L704 429M246 430L247 431L246 430z"/>
<path style="fill:#a6a6a6; stroke:none;" d="M294 430L295 431L294 430z"/>
<path style="fill:#343434; stroke:none;" d="M296 430L297 431L296 430z"/>
<path style="fill:#a6a6a6; stroke:none;" d="M323 430L324 431L323 430M332 430L333 431L332 430z"/>
<path style="fill:#343434; stroke:none;" d="M343.333 430.667L343.667 431.333L343.333 430.667z"/>
<path style="fill:#a6a6a6; stroke:none;" d="M346 430L347 431L346 430z"/>
<path style="fill:#343434; stroke:none;" d="M362 430L363 431L362 430M394 430L395 431L394 430z"/>
<path style="fill:#a6a6a6; stroke:none;" d="M458 430L459 431L458 430z"/>
<path style="fill:#343434; stroke:none;" d="M482 430L483 431L482 430z"/>
<path style="fill:#a6a6a6; stroke:none;" d="M514 430L515 431L514 430z"/>
<path style="fill:#343434; stroke:none;" d="M516 430L517 431L516 430z"/>
<path style="fill:#646464; stroke:none;" d="M546 430L547 431L546 430z"/>
<path style="fill:#a6a6a6; stroke:none;" d="M548.333 430.667L548.667 431.333L548.333 430.667z"/>
<path style="fill:#343434; stroke:none;" d="M583 430L584 431L583 430M635.333 430.667L635.667 431.333L635.333 430.667z"/>
<path style="fill:#a6a6a6; stroke:none;" d="M638 430L639 431L638 430z"/>
<path style="fill:#343434; stroke:none;" d="M654 430L655 431L654 430z"/>
<path style="fill:#646464; stroke:none;" d="M676.333 430.667L676.667 431.333L676.333 430.667z"/>
<path style="fill:#a6a6a6; stroke:none;" d="M704 430L705 431L704 430M246 431L247 432L246 431z"/>
<path style="fill:#343434; stroke:none;" d="M250 431L251 432L250 431z"/>
<path style="fill:#a6a6a6; stroke:none;" d="M293 431L294 432L293 431z"/>
<path style="fill:#646464; stroke:none;" d="M296 431L297 432L296 431z"/>
<path style="fill:#a6a6a6; stroke:none;" d="M324 431L325 432L324 431z"/>
<path style="fill:#343434; stroke:none;" d="M332 431L333 432L332 431z"/>
<path style="fill:#a6a6a6; stroke:none;" d="M347 431L348 432L347 431M357 431L358 432L357 431z"/>
<path style="fill:#343434; stroke:none;" d="M361 431L362 432L361 431M393 431L394 432L393 431M458 431L459 432L458 431M461 431L462 432L461 431z"/>
<path style="fill:#646464; stroke:none;" d="M475 431L476 432L475 431z"/>
<path style="fill:#a6a6a6; stroke:none;" d="M483 431L484 432L483 431M513 431L514 432L513 431z"/>
<path style="fill:#646464; stroke:none;" d="M516 431L517 432L516 431M545 431L546 432L545 431z"/>
<path style="fill:#343434; stroke:none;" d="M584 431L585 432L584 431z"/>
<path style="fill:#a6a6a6; stroke:none;" d="M639 431L640 432L639 431M649 431L650 432L649 431z"/>
<path style="fill:#343434; stroke:none;" d="M653 431L654 432L653 431z"/>
<path style="fill:#646464; stroke:none;" d="M694 431L695 432L694 431z"/>
<path style="fill:#343434; stroke:none;" d="M703 431L704 432L703 431z"/>
<path style="fill:#a6a6a6; stroke:none;" d="M724 431L724 465L725 465L724 431z"/>
<path style="fill:#343434; stroke:none;" d="M247 432L248 433L247 432z"/>
<path style="fill:#a6a6a6; stroke:none;" d="M250 432L251 433L250 432z"/>
<path style="fill:#343434; stroke:none;" d="M276 432L277 433L276 432z"/>
<path style="fill:#a6a6a6; stroke:none;" d="M291 432L292 433L291 432z"/>
<path style="fill:#343434; stroke:none;" d="M292 432L293 433L292 432z"/>
<path style="fill:#a6a6a6; stroke:none;" d="M296 432L297 433L296 432M316 432L317 433L316 432z"/>
<path style="fill:#646464; stroke:none;" d="M325 432L326 433L325 432z"/>
<path style="fill:#343434; stroke:none;" d="M333 432L334 433L333 432z"/>
<path style="fill:#646464; stroke:none;" d="M343 432L344 433L343 432M348 432L349 433L348 432z"/>
<path style="fill:#a6a6a6; stroke:none;" d="M356 432L357 433L356 432M361 432L362 433L361 432M375 432L376 433L375 432M390 432L391 433L390 432z"/>
<path style="fill:#646464; stroke:none;" d="M391 432L392 433L391 432z"/>
<path style="fill:#343434; stroke:none;" d="M395 432L396 433L395 432z"/>
<path style="fill:#a6a6a6; stroke:none;" d="M431 432L432 433L431 432M457 432L458 433L457 432M461 432L462 433L461 432M475 432L476 433L475 432z"/>
<path style="fill:#343434; stroke:none;" d="M496 432L497 433L496 432z"/>
<path style="fill:#a6a6a6; stroke:none;" d="M511 432L512 433L511 432z"/>
<path style="fill:#343434; stroke:none;" d="M512 432L513 433L512 432z"/>
<path style="fill:#a6a6a6; stroke:none;" d="M516 432L517 433L516 432M542.667 432.333L543.333 432.667L542.667 432.333z"/>
<path style="fill:#646464; stroke:none;" d="M585 432L586 433L585 432M609 432L610 433L609 432z"/>
<path style="fill:#343434; stroke:none;" d="M616 432L617 433L616 432z"/>
<path style="fill:#646464; stroke:none;" d="M635 432L636 433L635 432M640 432L641 433L640 432z"/>
<path style="fill:#a6a6a6; stroke:none;" d="M648 432L649 433L648 432M653 432L654 433L653 432M676 432L676 441L677 441L676 432M703 432L704 433L703 432M247 433L248 434L247 433z"/>
<path style="fill:#343434; stroke:none;" d="M249 433L250 434L249 433z"/>
<path style="fill:#a6a6a6; stroke:none;" d="M275 433L276 434L275 433z"/>
<path style="fill:#646464; stroke:none;" d="M308 433L309 434L308 433z"/>
<path style="fill:#343434; stroke:none;" d="M316 433L317 434L316 433z"/>
<path style="fill:#a6a6a6; stroke:none;" d="M326 433L327 434L326 433z"/>
<path style="fill:#343434; stroke:none;" d="M334 433L335 434L334 433M344 433L345 434L344 433z"/>
<path style="fill:#646464; stroke:none;" d="M350.667 433.333L351.333 433.667L350.667 433.333z"/>
<path style="fill:#a6a6a6; stroke:none;" d="M352.667 433.333L353.333 433.667L352.667 433.333z"/>
<path style="fill:#646464; stroke:none;" d="M354 433L355 434L354 433z"/>
<path style="fill:#343434; stroke:none;" d="M355 433L356 434L355 433M359 433L360 434L359 433z"/>
<path style="fill:#a6a6a6; stroke:none;" d="M360 433L361 434L360 433z"/>
<path style="fill:#343434; stroke:none;" d="M375 433L376 434L375 433z"/>
<path style="fill:#646464; stroke:none;" d="M395 433L396 434L395 433z"/>
<path style="fill:#343434; stroke:none;" d="M431 433L432 434L431 433z"/>
<path style="fill:#646464; stroke:none;" d="M439 433L440 434L439 433z"/>
<path style="fill:#a6a6a6; stroke:none;" d="M456 433L457 434L456 433z"/>
<path style="fill:#646464; stroke:none;" d="M461 433L462 434L461 433M475 433L476 434L475 433z"/>
<path style="fill:#343434; stroke:none;" d="M484 433L485 434L484 433z"/>
<path style="fill:#a6a6a6; stroke:none;" d="M495 433L496 434L495 433z"/>
<path style="fill:#646464; stroke:none;" d="M527 433L528 434L527 433z"/>
<path style="fill:#343434; stroke:none;" d="M547 433L548 434L547 433z"/>
<path style="fill:#646464; stroke:none;" d="M559 433L560 434L559 433z"/>
<path style="fill:#a6a6a6; stroke:none;" d="M567 433L568 434L567 433z"/>
<path style="fill:#646464; stroke:none;" d="M586 433L587 434L586 433z"/>
<path style="fill:#a6a6a6; stroke:none;" d="M617 433L618 434L617 433z"/>
<path style="fill:#343434; stroke:none;" d="M636 433L637 434L636 433z"/>
<path style="fill:#646464; stroke:none;" d="M642.667 433.333L643.333 433.667L642.667 433.333z"/>
<path style="fill:#a6a6a6; stroke:none;" d="M644.667 433.333L645.333 433.667L644.667 433.333z"/>
<path style="fill:#646464; stroke:none;" d="M646 433L647 434L646 433z"/>
<path style="fill:#343434; stroke:none;" d="M647 433L648 434L647 433M651 433L652 434L651 433z"/>
<path style="fill:#a6a6a6; stroke:none;" d="M652 433L653 434L652 433z"/>
<path style="fill:#646464; stroke:none;" d="M693 433L694 434L693 433z"/>
<path style="fill:#343434; stroke:none;" d="M702 433L703 434L702 433z"/>
<path style="fill:#646464; stroke:none;" d="M249 434L250 435L249 434z"/>
<path style="fill:#a6a6a6; stroke:none;" d="M273 434L274 435L273 434z"/>
<path style="fill:#343434; stroke:none;" d="M274 434L275 435L274 434z"/>
<path style="fill:#646464; stroke:none;" d="M306 434L307 435L306 434z"/>
<path style="fill:#343434; stroke:none;" d="M307 434L308 435L307 434z"/>
<path style="fill:#646464; stroke:none;" d="M318 434L319 435L318 434z"/>
<path style="fill:#a6a6a6; stroke:none;" d="M328 434L329 435L328 434z"/>
<path style="fill:#646464; stroke:none;" d="M329 434L330 435L329 434z"/>
<path style="fill:#343434; stroke:none;" d="M330.667 434.333L331.333 434.667L330.667 434.333M336 434L337 435L336 434z"/>
<path style="fill:#a6a6a6; stroke:none;" d="M337 434L338 435L337 434M345 434L346 435L345 434z"/>
<path style="fill:#343434; stroke:none;" d="M346 434L347 435L346 434M357 434L358 435L357 434z"/>
<path style="fill:#a6a6a6; stroke:none;" d="M358 434L359 435L358 434z"/>
<path style="fill:#646464; stroke:none;" d="M373 434L374 435L373 434z"/>
<path style="fill:#a6a6a6; stroke:none;" d="M395 434L396 435L395 434z"/>
<path style="fill:#646464; stroke:none;" d="M429 434L430 435L429 434z"/>
<path style="fill:#343434; stroke:none;" d="M440 434L441 435L440 434z"/>
<path style="fill:#646464; stroke:none;" d="M441 434L442 435L441 434M454 434L455 435L454 434z"/>
<path style="fill:#343434; stroke:none;" d="M455 434L456 435L455 434M462 434L463 435L462 434z"/>
<path style="fill:#a6a6a6; stroke:none;" d="M463 434L464 435L463 434M473 434L474 435L473 434z"/>
<path style="fill:#343434; stroke:none;" d="M474 434L475 435L474 434M486 434L487 435L486 434z"/>
<path style="fill:#a6a6a6; stroke:none;" d="M487 434L488 435L487 434M493 434L494 435L493 434z"/>
<path style="fill:#343434; stroke:none;" d="M494 434L495 435L494 434z"/>
<path style="fill:#646464; stroke:none;" d="M525 434L526 435L525 434z"/>
<path style="fill:#343434; stroke:none;" d="M526 434L527 435L526 434z"/>
<path style="fill:#646464; stroke:none;" d="M547 434L548 435L547 434M557 434L558 435L557 434z"/>
<path style="fill:#343434; stroke:none;" d="M558 434L559 435L558 434M568 434L569 435L568 434z"/>
<path style="fill:#646464; stroke:none;" d="M569 434L570 435L569 434z"/>
<path style="fill:#a6a6a6; stroke:none;" d="M587 434L588 435L587 434M606 434L607 435L606 434z"/>
<path style="fill:#646464; stroke:none;" d="M607 434L608 435L607 434z"/>
<path style="fill:#343434; stroke:none;" d="M618 434L619 435L618 434z"/>
<path style="fill:#a6a6a6; stroke:none;" d="M619 434L620 435L619 434M637 434L638 435L637 434z"/>
<path style="fill:#343434; stroke:none;" d="M638 434L639 435L638 434M649 434L650 435L649 434z"/>
<path style="fill:#a6a6a6; stroke:none;" d="M650 434L651 435L650 434M692 434L693 435L692 434M702 434L703 435L702 434M248.667 435.333L249.333 435.667L248.667 435.333M349.667 435.333L350.333 435.667L349.667 435.333z"/>
<path style="fill:#646464; stroke:none;" d="M351.667 435.333L352.333 435.667L351.667 435.333z"/>
<path style="fill:#a6a6a6; stroke:none;" d="M353 435L353 436L356 436L353 435M588 435L589 436L588 435M641.667 435.333L642.333 435.667L641.667 435.333z"/>
<path style="fill:#646464; stroke:none;" d="M643.667 435.333L644.333 435.667L643.667 435.333z"/>
<path style="fill:#a6a6a6; stroke:none;" d="M645 435L645 436L648 436L645 435z"/>
<path style="fill:#343434; stroke:none;" d="M692 435L693 436L692 435M701 435L702 436L701 435z"/>
<path style="fill:#a6a6a6; stroke:none;" d="M691 436L692 437L691 436z"/>
<path style="fill:#646464; stroke:none;" d="M700 437L701 438L700 437M690 438L691 439L690 438M665 439L665 444L666 444L665 439z"/>
<path style="fill:#a6a6a6; stroke:none;" d="M689 439L690 440L689 439z"/>
<path style="fill:#646464; stroke:none;" d="M699 439L700 440L699 439z"/>
<path style="fill:#343434; stroke:none;" d="M698 440L699 441L698 440z"/>
<path style="fill:#646464; stroke:none;" d="M676 441L676 444L677 444L676 441M688 441L689 442L688 441z"/>
<path style="fill:#a6a6a6; stroke:none;" d="M698 441L699 442L698 441M687 442L688 443L687 442z"/>
<path style="fill:#343434; stroke:none;" d="M697 442L698 443L697 442z"/>
<path style="fill:#a6a6a6; stroke:none;" d="M665.333 444.667L665.667 445.333L665.333 444.667z"/>
<path style="fill:#343434; stroke:none;" d="M676 444L677 445L676 444M686 444L687 445L686 444z"/>
<path style="fill:#a6a6a6; stroke:none;" d="M696 444L697 445L696 444z"/>
<path style="fill:#646464; stroke:none;" d="M685 445L686 446L685 445z"/>
<path style="fill:#343434; stroke:none;" d="M695 445L696 446L695 445z"/>
<path style="fill:#a6a6a6; stroke:none;" d="M382 446L383 447L382 446z"/>
<path style="fill:#646464; stroke:none;" d="M383 446L384 447L383 446z"/>
<path style="fill:#343434; stroke:none;" d="M384 448L388 447L384 448z"/>
<path style="fill:#646464; stroke:none;" d="M388 446L389 447L388 446M395 446L397 448L395 446z"/>
<path style="fill:#a6a6a6; stroke:none;" d="M396 446L397 447L396 446M402 446L403 447L402 446z"/>
<path style="fill:#343434; stroke:none;" d="M403 446L405 448L405 446L403 446z"/>
<path style="fill:#646464; stroke:none;" d="M405 446L406 447L405 446z"/>
<path style="fill:#a6a6a6; stroke:none;" d="M406 446L407 447L406 446z"/>
<path style="fill:#646464; stroke:none;" d="M412 446L413 447L412 446z"/>
<path style="fill:#343434; stroke:none;" d="M413 448L423 448C420.02 445.743 415.648 444.969 413 448z"/>
<path style="fill:#020202; stroke:none;" d="M422 446L423 447L422 446z"/>
<path style="fill:#646464; stroke:none;" d="M423 446L423 449L424 449L423 446z"/>
<path style="fill:#a6a6a6; stroke:none;" d="M431 446L433 448L431 446z"/>
<path style="fill:#646464; stroke:none;" d="M432 446L433 447L432 446z"/>
<path style="fill:#343434; stroke:none;" d="M433 446L433 447L439 447L433 446z"/>
<path style="fill:#646464; stroke:none;" d="M439 446L438 448L439 446z"/>
<path style="fill:#a6a6a6; stroke:none;" d="M440 446L441 447L440 446z"/>
<path style="fill:#646464; stroke:none;" d="M453.333 446.667L453.667 447.333L453.333 446.667z"/>
<path style="fill:#343434; stroke:none;" d="M454 446L455 447L454 446z"/>
<path style="fill:#020202; stroke:none;" d="M455 446L455 447C458.374 448.651 458.041 450.081 456 453L456 454C458.651 458.113 457.792 460.075 454 463L454 464C459.78 463.074 464.075 459.033 459 454L459 453C461.862 449.03 459.133 446.862 455 446z"/>
<path style="fill:#343434; stroke:none;" d="M458 446L459 447L458 446z"/>
<path style="fill:#a6a6a6; stroke:none;" d="M459 446L460 447L459 446M480 446L481 447L480 446z"/>
<path style="fill:#343434; stroke:none;" d="M481 448L486 447L481 448z"/>
<path style="fill:#a6a6a6; stroke:none;" d="M486 446L487 447L486 446M498 446L499 447L498 446z"/>
<path style="fill:#646464; stroke:none;" d="M499 446L500 447L499 446z"/>
<path style="fill:#343434; stroke:none;" d="M500 446L501 447L500 446z"/>
<path style="fill:#020202; stroke:none;" d="M501 446L501 447L504 447L501 446z"/>
<path style="fill:#343434; stroke:none;" d="M504 446L508 448L508 447L504 446z"/>
<path style="fill:#646464; stroke:none;" d="M505 446L506 447L505 446z"/>
<path style="fill:#a6a6a6; stroke:none;" d="M506 446L507 447L506 446M518 446L519 447L518 446z"/>
<path style="fill:#646464; stroke:none;" d="M519 446L520 447L519 446z"/>
<path style="fill:#343434; stroke:none;" d="M520 446L520 447L526 447L520 446z"/>
<path style="fill:#646464; stroke:none;" d="M526.667 446.333L527.333 446.667L526.667 446.333z"/>
<path style="fill:#a6a6a6; stroke:none;" d="M528 446L529 447L528 446M541 446L542 447L541 446z"/>
<path style="fill:#343434; stroke:none;" d="M542 446L543 447L542 446z"/>
<path style="fill:#020202; stroke:none;" d="M545 462L545 463C557.274 458.304 537.349 450.007 547 447C534.545 442.72 547.021 459.512 545 462z"/>
<path style="fill:#343434; stroke:none;" d="M547.667 446.333L548.333 446.667L547.667 446.333z"/>
<path style="fill:#a6a6a6; stroke:none;" d="M684 446L685 447L684 446z"/>
<path style="fill:#020202; stroke:none;" d="M385 447L390 461L395 452L400 461L402 455L396 447L391 456L388 447L385 447z"/>
<path style="fill:#a6a6a6; stroke:none;" d="M388 447L389 448L388 447z"/>
<path style="fill:#020202; stroke:none;" d="M403 447L403 450L404 450L403 447M414 447L413 463L424 461L417 462L417 447L414 447z"/>
<path style="fill:#a6a6a6; stroke:none;" d="M417 447L417 448L422 448L417 447z"/>
<path style="fill:#020202; stroke:none;" d="M433 447L433 463C438.365 462.955 450.054 459.576 441 454C443.663 450.664 443.143 448.319 439 447C440.58 452.423 442.583 460.026 436 462L436 447L433 447z"/>
<path style="fill:#646464; stroke:none;" d="M436 447L437 448L436 447z"/>
<path style="fill:#a6a6a6; stroke:none;" d="M437 447L436 461L437 461L437 447z"/>
<path style="fill:#646464; stroke:none;" d="M442 447L443 448L442 447z"/>
<path style="fill:#a6a6a6; stroke:none;" d="M451 447L452 448L451 447z"/>
<path style="fill:#020202; stroke:none;" d="M452.333 447.667L452.667 448.333L452.333 447.667z"/>
<path style="fill:#a6a6a6; stroke:none;" d="M456 447L457 448L456 447z"/>
<path style="fill:#343434; stroke:none;" d="M457 447L458 448L457 447M460 447L461 448L460 447z"/>
<path style="fill:#020202; stroke:none;" d="M482 447L481 467C486.624 462.037 485 453.905 485 447L482 447z"/>
<path style="fill:#a6a6a6; stroke:none;" d="M485 447L486 448L485 447M496 447L494 450L496 447z"/>
<path style="fill:#343434; stroke:none;" d="M497 447L498 448L497 447z"/>
<path style="fill:#020202; stroke:none;" d="M499 462C496.851 456.104 496.958 452.529 500 447C492.736 449.612 492.039 458.489 499 462z"/>
<path style="fill:#a6a6a6; stroke:none;" d="M500 447L498 450L500 447z"/>
<path style="fill:#ffffff; stroke:none;" d="M501.14 448.137C495.799 450.612 497.038 463.639 503.882 461.338C510.32 459.173 507.995 444.959 501.14 448.137z"/>
<path style="fill:#a6a6a6; stroke:none;" d="M504 447L505 448L504 447z"/>
<path style="fill:#020202; stroke:none;" d="M506 447L507 448L506 447z"/>
<path style="fill:#a6a6a6; stroke:none;" d="M508 447L509 448L508 447z"/>
<path style="fill:#020202; stroke:none;" d="M520 447L520 463C525.365 462.955 537.054 459.576 528 454C531.041 450.642 530.335 448.318 526 447C527.974 452.668 530.106 459.931 523 462L523 447L520 447z"/>
<path style="fill:#a6a6a6; stroke:none;" d="M524.667 447.333L525.333 447.667L524.667 447.333z"/>
<path style="fill:#343434; stroke:none;" d="M529 447L530 448L529 447z"/>
<path style="fill:#646464; stroke:none;" d="M540 447L541 448L540 447z"/>
<path style="fill:#a6a6a6; stroke:none;" d="M543 447L544 448L543 447M546 447L547 448L546 447z"/>
<path style="fill:#646464; stroke:none;" d="M547 447L549 449L547 447z"/>
<path style="fill:#020202; stroke:none;" d="M548 447L549 448L548 447z"/>
<path style="fill:#a6a6a6; stroke:none;" d="M677.333 447.667L677.667 448.333L677.333 447.667M683 447L684 448L683 447z"/>
<path style="fill:#646464; stroke:none;" d="M694 447L695 448L694 447z"/>
<path style="fill:#a6a6a6; stroke:none;" d="M384 448L385 449L384 448z"/>
<path style="fill:#646464; stroke:none;" d="M388 448L389 449L388 448z"/>
<path style="fill:#a6a6a6; stroke:none;" d="M394 448L395 449L394 448z"/>
<path style="fill:#646464; stroke:none;" d="M404 448L405 449L404 448M413 448L413 461L414 461L413 448z"/>
<path style="fill:#ffffff; stroke:none;" d="M437 448L437 462C440.323 459.956 441.681 457.412 438 455L439 448L437 448z"/>
<path style="fill:#a6a6a6; stroke:none;" d="M439 448L440 449L439 448z"/>
<path style="fill:#646464; stroke:none;" d="M443 448L444 449L443 448M451 448L453 450L451 448M461 448L462 449L461 448M481 448L481 463L482 463L481 448z"/>
<path style="fill:#020202; stroke:none;" d="M507 448C508.036 453.585 508.551 457.984 504 462L504 463C510.865 460.639 514.532 452.116 507 448z"/>
<path style="fill:#646464; stroke:none;" d="M509 448L510 449L509 448M523 448L523 461L524 461L523 448z"/>
<path style="fill:#ffffff; stroke:none;" d="M524 448L524 462C527.323 459.956 528.681 457.412 525 455L527 448L524 448z"/>
<path style="fill:#343434; stroke:none;" d="M530 448L531 449L530 448z"/>
<path style="fill:#a6a6a6; stroke:none;" d="M539 448L540 449L539 448M542 448L543 449L542 448z"/>
<path style="fill:#343434; stroke:none;" d="M666 448L667 449L666 448z"/>
<path style="fill:#a6a6a6; stroke:none;" d="M682 448L683 449L682 448z"/>
<path style="fill:#343434; stroke:none;" d="M693 448L694 449L693 448M394 449L395 450L394 449z"/>
<path style="fill:#646464; stroke:none;" d="M397 449L398 450L397 449z"/>
<path style="fill:#a6a6a6; stroke:none;" d="M402 449L403 450L402 449M423 449L424 450L423 449z"/>
<path style="fill:#343434; stroke:none;" d="M443 449L444 450L443 449z"/>
<path style="fill:#a6a6a6; stroke:none;" d="M451 449L452 450L451 449z"/>
<path style="fill:#343434; stroke:none;" d="M458 449L459 450L458 449M461.333 449.667L461.667 450.333L461.333 449.667z"/>
<path style="fill:#a6a6a6; stroke:none;" d="M510 449L511 450L510 449z"/>
<path style="fill:#646464; stroke:none;" d="M527 449L527 452L528 452L527 449M539.333 449.667L539.667 450.333L539.333 449.667z"/>
<path style="fill:#a6a6a6; stroke:none;" d="M548 449L549 450L548 449z"/>
<path style="fill:#646464; stroke:none;" d="M666 449L667 450L666 449M677 449L678 450L677 449M681 449L682 450L681 449z"/>
<path style="fill:#a6a6a6; stroke:none;" d="M693 449L694 450L693 449z"/>
<path style="fill:#646464; stroke:none;" d="M385 450L386 451L385 450z"/>
<path style="fill:#a6a6a6; stroke:none;" d="M389 450L390 451L389 450M393 450L394 451L393 450z"/>
<path style="fill:#646464; stroke:none;" d="M402 450L404 452L402 450z"/>
<path style="fill:#343434; stroke:none;" d="M403 450L404 451L403 450M440 450L441 451L440 450z"/>
<path style="fill:#a6a6a6; stroke:none;" d="M452 450L453 451L452 450z"/>
<path style="fill:#343434; stroke:none;" d="M494 450L495 451L494 450M497 450L498 451L497 450z"/>
<path style="fill:#646464; stroke:none;" d="M507 450L508 451L507 450z"/>
<path style="fill:#a6a6a6; stroke:none;" d="M531 450L532 451L531 450z"/>
<path style="fill:#343434; stroke:none;" d="M542 450L543 451L542 450z"/>
<path style="fill:#a6a6a6; stroke:none;" d="M666 450L667 451L666 450z"/>
<path style="fill:#343434; stroke:none;" d="M677 450L678 451L677 450z"/>
<path style="fill:#a6a6a6; stroke:none;" d="M679 450L680 451L679 450z"/>
<path style="fill:#343434; stroke:none;" d="M680 450L681 451L680 450z"/>
<path style="fill:#a6a6a6; stroke:none;" d="M692 450L693 451L692 450M385 451L386 452L385 451z"/>
<path style="fill:#646464; stroke:none;" d="M389 451L390 452L389 451M393 451L394 452L393 451z"/>
<path style="fill:#a6a6a6; stroke:none;" d="M398 451L399 452L398 451z"/>
<path style="fill:#020202; stroke:none;" d="M402 451L402 454L403 454L402 451z"/>
<path style="fill:#343434; stroke:none;" d="M443 451L444 452L443 451z"/>
<path style="fill:#a6a6a6; stroke:none;" d="M457 451L458 452L457 451M461 451L462 452L461 451M493.333 451.667L493.667 452.333L493.333 451.667z"/>
<path style="fill:#646464; stroke:none;" d="M497 451L498 452L497 451z"/>
<path style="fill:#a6a6a6; stroke:none;" d="M507 451L508 452L507 451M511 451L512 452L511 451M539 451L540 452L539 451z"/>
<path style="fill:#343434; stroke:none;" d="M543 451L544 452L543 451M678 451L679 452L678 451z"/>
<path style="fill:#646464; stroke:none;" d="M691 451L692 452L691 451z"/>
<path style="fill:#343434; stroke:none;" d="M386 452L387 453L386 452z"/>
<path style="fill:#646464; stroke:none;" d="M394 452L395 453L394 452z"/>
<path style="fill:#343434; stroke:none;" d="M398 452L399 453L398 452z"/>
<path style="fill:#a6a6a6; stroke:none;" d="M401 452L402 453L401 452M403 452L404 453L403 452M422 452L422 457L423 457L422 452M439 452L440 453L439 452M443 452L444 453L443 452M456 452L457 453L456 452z"/>
<path style="fill:#646464; stroke:none;" d="M460 452L461 453L460 452z"/>
<path style="fill:#a6a6a6; stroke:none;" d="M497.333 452.667L497.667 453.333L497.333 452.667z"/>
<path style="fill:#646464; stroke:none;" d="M511 452L512 453L511 452M530 452L531 453L530 452z"/>
<path style="fill:#a6a6a6; stroke:none;" d="M545 452L546 453L545 452z"/>
<path style="fill:#646464; stroke:none;" d="M667 452L668 453L667 452z"/>
<path style="fill:#343434; stroke:none;" d="M690 452L691 453L690 452z"/>
<path style="fill:#a6a6a6; stroke:none;" d="M386 453L387 454L386 453M390 453L391 454L390 453z"/>
<path style="fill:#646464; stroke:none;" d="M392 453L393 454L392 453z"/>
<path style="fill:#a6a6a6; stroke:none;" d="M395 453L396 454L395 453M399 453L400 454L399 453z"/>
<path style="fill:#646464; stroke:none;" d="M401 453L403 455L401 453M421 453L422 454L421 453z"/>
<path style="fill:#a6a6a6; stroke:none;" d="M438.333 453.667L438.667 454.333L438.333 453.667z"/>
<path style="fill:#343434; stroke:none;" d="M441 453L443 455L441 453z"/>
<path style="fill:#a6a6a6; stroke:none;" d="M442 453L443 454L442 453M454 453L455 454L454 453z"/>
<path style="fill:#646464; stroke:none;" d="M455 453L456 454L455 453z"/>
<path style="fill:#a6a6a6; stroke:none;" d="M459 453L460 454L459 453z"/>
<path style="fill:#646464; stroke:none;" d="M493 453L494 454L493 453z"/>
<path style="fill:#343434; stroke:none;" d="M511 453L512 454L511 453z"/>
<path style="fill:#a6a6a6; stroke:none;" d="M525.333 453.667L525.667 454.333L525.333 453.667z"/>
<path style="fill:#343434; stroke:none;" d="M526 453L527 454L526 453M528 453L530 455L528 453z"/>
<path style="fill:#a6a6a6; stroke:none;" d="M529 453L530 454L529 453M540 453L541 454L540 453z"/>
<path style="fill:#343434; stroke:none;" d="M546 453L547 454L546 453M689 453L690 454L689 453M390 454L391 455L390 454z"/>
<path style="fill:#646464; stroke:none;" d="M393 454L394 455L393 454z"/>
<path style="fill:#343434; stroke:none;" d="M399 454L400 455L399 454M401 454L402 455L401 454M417 454L417 455L420 455L417 454z"/>
<path style="fill:#020202; stroke:none;" d="M420.667 454.333L421.333 454.667L420.667 454.333z"/>
<path style="fill:#343434; stroke:none;" d="M439 454L440 455L439 454z"/>
<path style="fill:#a6a6a6; stroke:none;" d="M443 454L444 455L443 454z"/>
<path style="fill:#646464; stroke:none;" d="M456 454L457 455L456 454M460 454L461 455L460 454z"/>
<path style="fill:#343434; stroke:none;" d="M493 454L494 455L493 454z"/>
<path style="fill:#646464; stroke:none;" d="M526 454L527 455L526 454z"/>
<path style="fill:#a6a6a6; stroke:none;" d="M530 454L531 455L530 454M541 454L542 455L541 454M548 454L549 455L548 454z"/>
<path style="fill:#646464; stroke:none;" d="M668 454L669 455L668 454z"/>
<path style="fill:#343434; stroke:none;" d="M387 455L388 456L387 455z"/>
<path style="fill:#a6a6a6; stroke:none;" d="M391 455L392 456L391 455M393 455L394 456L393 455z"/>
<path style="fill:#646464; stroke:none;" d="M396 455L397 456L396 455z"/>
<path style="fill:#a6a6a6; stroke:none;" d="M400 455L401 456L400 455M402 455L403 456L402 455M417 455L417 456L421 456L417 455z"/>
<path style="fill:#343434; stroke:none;" d="M421 455L422 456L421 455z"/>
<path style="fill:#646464; stroke:none;" d="M440 455L441 456L440 455z"/>
<path style="fill:#a6a6a6; stroke:none;" d="M444 455L445 456L444 455z"/>
<path style="fill:#343434; stroke:none;" d="M461 455L462 456L461 455z"/>
<path style="fill:#646464; stroke:none;" d="M493.333 455.667L493.667 456.333L493.333 455.667z"/>
<path style="fill:#a6a6a6; stroke:none;" d="M497 455L497 458L498 458L497 455z"/>
<path style="fill:#343434; stroke:none;" d="M511 455L512 456L511 455z"/>
<path style="fill:#a6a6a6; stroke:none;" d="M527 455L528 456L527 455z"/>
<path style="fill:#646464; stroke:none;" d="M531 455L532 456L531 455M543 455L544 456L543 455z"/>
<path style="fill:#a6a6a6; stroke:none;" d="M549 455L550 456L549 455M688 455L689 456L688 455M387 456L388 457L387 456z"/>
<path style="fill:#343434; stroke:none;" d="M392 456L393 457L392 456M458 456L459 457L458 456z"/>
<path style="fill:#a6a6a6; stroke:none;" d="M462 456L462 459L463 459L462 456z"/>
<path style="fill:#646464; stroke:none;" d="M511.333 456.667L511.667 457.333L511.333 456.667z"/>
<path style="fill:#343434; stroke:none;" d="M528 456L529 457L528 456z"/>
<path style="fill:#a6a6a6; stroke:none;" d="M532.333 456.667L532.667 457.333L532.333 456.667M544 456L545 457L544 456z"/>
<path style="fill:#343434; stroke:none;" d="M545 456L546 457L545 456z"/>
<path style="fill:#a6a6a6; stroke:none;" d="M669 456L670 457L669 456z"/>
<path style="fill:#343434; stroke:none;" d="M686 456L687 457L686 456z"/>
<path style="fill:#a6a6a6; stroke:none;" d="M392 457L393 458L392 457z"/>
<path style="fill:#646464; stroke:none;" d="M397 457L398 458L397 457M401 457L402 458L401 457z"/>
<path style="fill:#343434; stroke:none;" d="M441.333 457.667L441.667 458.333L441.333 457.667z"/>
<path style="fill:#a6a6a6; stroke:none;" d="M445.333 457.667L445.667 458.333L445.333 457.667M458.333 457.667L458.667 458.333L458.333 457.667M493 457L494 458L493 457M507 457L508 458L507 457z"/>
<path style="fill:#646464; stroke:none;" d="M528.333 457.667L528.667 458.333L528.333 457.667z"/>
<path style="fill:#343434; stroke:none;" d="M546 457L547 458L546 457z"/>
<path style="fill:#a6a6a6; stroke:none;" d="M550 457L550 460L551 460L550 457z"/>
<path style="fill:#646464; stroke:none;" d="M670 457L671 458L670 457z"/>
<path style="fill:#343434; stroke:none;" d="M685 457L686 458L685 457z"/>
<path style="fill:#646464; stroke:none;" d="M388 458L389 459L388 458z"/>
<path style="fill:#a6a6a6; stroke:none;" d="M397 458L398 459L397 458M401 458L402 459L401 458M424 458L425 459L424 458z"/>
<path style="fill:#343434; stroke:none;" d="M497 458L498 459L497 458z"/>
<path style="fill:#646464; stroke:none;" d="M507 458L508 459L507 458z"/>
<path style="fill:#a6a6a6; stroke:none;" d="M511 458L512 459L511 458z"/>
<path style="fill:#646464; stroke:none;" d="M532 458L533 459L532 458z"/>
<path style="fill:#a6a6a6; stroke:none;" d="M539 458L540 459L539 458z"/>
<path style="fill:#343434; stroke:none;" d="M547 458L548 459L547 458z"/>
<path style="fill:#646464; stroke:none;" d="M671 458L672 459L671 458M684 458L685 459L684 458z"/>
<path style="fill:#a6a6a6; stroke:none;" d="M388 459L389 460L388 459z"/>
<path style="fill:#646464; stroke:none;" d="M391 459L392 460L391 459z"/>
<path style="fill:#343434; stroke:none;" d="M398 459L399 460L398 459z"/>
<path style="fill:#646464; stroke:none;" d="M424 459L423 461L424 459M458 459L459 460L458 459z"/>
<path style="fill:#a6a6a6; stroke:none;" d="M494 459L495 460L494 459M498 459L499 460L498 459z"/>
<path style="fill:#646464; stroke:none;" d="M510 459L511 460L510 459z"/>
<path style="fill:#343434; stroke:none;" d="M528 459L529 460L528 459z"/>
<path style="fill:#a6a6a6; stroke:none;" d="M532 459L533 460L532 459z"/>
<path style="fill:#343434; stroke:none;" d="M539 459L540 460L539 459z"/>
<path style="fill:#a6a6a6; stroke:none;" d="M547 459L548 460L547 459M672 459L673 460L672 459z"/>
<path style="fill:#343434; stroke:none;" d="M682 459L683 460L682 459z"/>
<path style="fill:#a6a6a6; stroke:none;" d="M683 459L684 460L683 459z"/>
<path style="fill:#343434; stroke:none;" d="M389 460L391 462L389 460z"/>
<path style="fill:#a6a6a6; stroke:none;" d="M398 460L399 461L398 460z"/>
<path style="fill:#343434; stroke:none;" d="M400 460L399 462L400 460z"/>
<path style="fill:#a6a6a6; stroke:none;" d="M424.333 460.667L424.667 461.333L424.333 460.667z"/>
<path style="fill:#646464; stroke:none;" d="M440 460L441 461L440 460M444 460L445 461L444 460z"/>
<path style="fill:#343434; stroke:none;" d="M461 460L462 461L461 460z"/>
<path style="fill:#646464; stroke:none;" d="M495 460L496 461L495 460z"/>
<path style="fill:#343434; stroke:none;" d="M498 460L499 461L498 460z"/>
<path style="fill:#646464; stroke:none;" d="M506 460L507 461L506 460z"/>
<path style="fill:#343434; stroke:none;" d="M509 460L510 461L509 460z"/>
<path style="fill:#a6a6a6; stroke:none;" d="M527 460L528 461L527 460z"/>
<path style="fill:#343434; stroke:none;" d="M531 460L532 461L531 460z"/>
<path style="fill:#020202; stroke:none;" d="M539 460L543 463L543 462L539 460z"/>
<path style="fill:#646464; stroke:none;" d="M540 460L541 461L540 460M547 460L548 461L547 460z"/>
<path style="fill:#343434; stroke:none;" d="M549 460L550 461L549 460z"/>
<path style="fill:#a6a6a6; stroke:none;" d="M674 460L675 461L674 460z"/>
<path style="fill:#343434; stroke:none;" d="M675 460L676 461L675 460z"/>
<path style="fill:#646464; stroke:none;" d="M680 460L681 461L680 460z"/>
<path style="fill:#a6a6a6; stroke:none;" d="M681 460L682 461L681 460z"/>
<path style="fill:#646464; stroke:none;" d="M389 461L390 462L389 461M400 461L401 462L400 461z"/>
<path style="fill:#343434; stroke:none;" d="M413 461L414 462L413 461z"/>
<path style="fill:#a6a6a6; stroke:none;" d="M421 461L422 462L421 461z"/>
<path style="fill:#343434; stroke:none;" d="M422 461L423 462L422 461z"/>
<path style="fill:#a6a6a6; stroke:none;" d="M432 461L431 463L432 461z"/>
<path style="fill:#646464; stroke:none;" d="M436 461L437 462L436 461z"/>
<path style="fill:#a6a6a6; stroke:none;" d="M438 461L439 462L438 461z"/>
<path style="fill:#646464; stroke:none;" d="M439 461L440 462L439 461z"/>
<path style="fill:#343434; stroke:none;" d="M443 461L444 462L443 461z"/>
<path style="fill:#a6a6a6; stroke:none;" d="M456 461L457 462L456 461M461 461L462 462L461 461M496 461L497 462L496 461z"/>
<path style="fill:#343434; stroke:none;" d="M499.333 461.667L499.667 462.333L499.333 461.667M505 461L506 462L505 461z"/>
<path style="fill:#646464; stroke:none;" d="M508 461L509 462L508 461z"/>
<path style="fill:#343434; stroke:none;" d="M523 461L524 462L523 461z"/>
<path style="fill:#a6a6a6; stroke:none;" d="M525.667 461.333L526.333 461.667L525.667 461.333z"/>
<path style="fill:#343434; stroke:none;" d="M530 461L531 462L530 461z"/>
<path style="fill:#646464; stroke:none;" d="M541 461L542 462L541 461z"/>
<path style="fill:#a6a6a6; stroke:none;" d="M546 461L547 462L546 461M549 461L550 462L549 461z"/>
<path style="fill:#646464; stroke:none;" d="M390 462L391 463L390 462z"/>
<path style="fill:#a6a6a6; stroke:none;" d="M399.667 462.333L400.333 462.667L399.667 462.333z"/>
<path style="fill:#646464; stroke:none;" d="M412 462L413 463L412 462z"/>
<path style="fill:#343434; stroke:none;" d="M432 462L433 463L432 462M440 462L441 463L440 462z"/>
<path style="fill:#646464; stroke:none;" d="M441 462L442 463L441 462z"/>
<path style="fill:#a6a6a6; stroke:none;" d="M442 462L443 463L442 462M455 462L456 463L455 462M460 462L461 463L460 462z"/>
<path style="fill:#646464; stroke:none;" d="M498 462L499 463L498 462z"/>
<path style="fill:#020202; stroke:none;" d="M500.667 462.333L501.333 462.667L500.667 462.333z"/>
<path style="fill:#343434; stroke:none;" d="M502.667 462.333L503.333 462.667L502.667 462.333z"/>
<path style="fill:#646464; stroke:none;" d="M506 462L507 463L506 462z"/>
<path style="fill:#a6a6a6; stroke:none;" d="M518 462L519 463L518 462z"/>
<path style="fill:#343434; stroke:none;" d="M519 462L520 463L519 462M527 462L528 463L527 462z"/>
<path style="fill:#646464; stroke:none;" d="M528 462L529 463L528 462z"/>
<path style="fill:#a6a6a6; stroke:none;" d="M529 462L530 463L529 462z"/>
<path style="fill:#646464; stroke:none;" d="M540 462L541 463L540 462z"/>
<path style="fill:#343434; stroke:none;" d="M543.667 462.333L544.333 462.667L543.667 462.333z"/>
<path style="fill:#646464; stroke:none;" d="M547 462L548 463L547 462z"/>
<path style="fill:#a6a6a6; stroke:none;" d="M451 463L452 464L451 463z"/>
<path style="fill:#646464; stroke:none;" d="M452 463L453 464L452 463z"/>
<path style="fill:#343434; stroke:none;" d="M453 463L454 464L453 463M457 463L458 464L457 463z"/>
<path style="fill:#a6a6a6; stroke:none;" d="M458 463L459 464L458 463z"/>
<path style="fill:#343434; stroke:none;" d="M481 463L482 464L481 463M484 463L485 464L484 463z"/>
<path style="fill:#a6a6a6; stroke:none;" d="M502.667 463.333L503.333 463.667L502.667 463.333M543.667 463.333L544.333 463.667L543.667 463.333M454.667 464.333L455.333 464.667L454.667 464.333z"/>
<path style="fill:#646464; stroke:none;" d="M484 464L485 465L484 464z"/>
<path style="fill:#a6a6a6; stroke:none;" d="M480 465L481 466L480 465z"/>
<path style="fill:#343434; stroke:none;" d="M483 465L484 466L483 465M480 466L481 467L480 466z"/>
<path style="fill:#646464; stroke:none;" d="M482 466L483 467L482 466M479.667 467.333L480.333 467.667L479.667 467.333z"/>
<path style="fill:#a6a6a6; stroke:none;" d="M481 467L482 468L481 467z"/>
<path style="fill:#343434; stroke:none;" d="M725 476L725 480L726 480L725 476z"/>
<path style="fill:#646464; stroke:none;" d="M735 476L735 480L736 480L735 476M725 480L725 483L726 483L725 480z"/>
<path style="fill:#343434; stroke:none;" d="M735.333 480.667L735.667 481.333L735.333 480.667z"/>
<path style="fill:#a6a6a6; stroke:none;" d="M725 483L725 491L726 491L725 483M736 485L736 489L737 489L736 485z"/>
<path style="fill:#646464; stroke:none;" d="M736 489L736 496L737 496L736 489z"/>
<path style="fill:#343434; stroke:none;" d="M726 493L727 494L726 493z"/>
<path style="fill:#646464; stroke:none;" d="M726 494L727 495L726 494z"/>
<path style="fill:#a6a6a6; stroke:none;" d="M726 495L727 496L726 495M736 496L737 497L736 496z"/>
<path style="fill:#343434; stroke:none;" d="M727 497L728 498L727 497z"/>
<path style="fill:#a6a6a6; stroke:none;" d="M727 498L728 499L727 498z"/>
<path style="fill:#646464; stroke:none;" d="M728 499L729 500L728 499z"/>
<path style="fill:#a6a6a6; stroke:none;" d="M735 499L736 500L735 499M729 500L730 501L729 500z"/>
<path style="fill:#343434; stroke:none;" d="M734 500L735 501L734 500z"/>
<path style="fill:#a6a6a6; stroke:none;" d="M731 501L731 502L734 502L731 501z"/>
</svg>
